/* XPM */
static char * collectible_xpm[] = {
"42 42 62 1",
" 	c None",
".	c #ABB2BA",
"+	c #ACB2BA",
"@	c #AAB1B9",
"#	c #ABB1B9",
"$	c #A9B0B8",
"%	c #AAB0B9",
"&	c #A9AFB8",
"*	c #A8AFB8",
"=	c #A8AEB7",
"-	c #A7ADB7",
";	c #A8AFB7",
">	c #A7AEB6",
",	c #A6ADB5",
"'	c #A5ADB5",
")	c #A5ACB4",
"!	c #A7AFB7",
"~	c #A6ADB6",
"{	c #A9B0B9",
"]	c #A8AFB9",
"^	c #A4ABB4",
"/	c #A5ACB5",
"(	c #A7AEB7",
"_	c #A7ADB6",
":	c #A5ABB4",
"<	c #A6ACB5",
"[	c #A3AAB2",
"}	c #A2AAB2",
"|	c #A4ABB3",
"1	c #501000",
"2	c #A3AAB3",
"3	c #A9AFB9",
"4	c #E06848",
"5	c #A4AAB3",
"6	c #A5ABB5",
"7	c #F8F8F8",
"8	c #903828",
"9	c #A6ACB6",
"0	c #A3ABB3",
"a	c #A6AEB6",
"b	c #000000",
"c	c #484858",
"d	c #C0C0D0",
"e	c #ABB1BA",
"f	c #ADB3BB",
"g	c #ACB3BB",
"h	c #AAB1BA",
"i	c #AAB0B8",
"j	c #ADB4BC",
"k	c #ABB3BB",
"l	c #A9B1B9",
"m	c #ACB3BA",
"n	c #ABB2B9",
"o	c #AAB1B8",
"p	c #A9B0B7",
"q	c #A9AFB7",
"r	c #AEB4BC",
"s	c #A8AFB6",
"t	c #A8B0B7",
"u	c #A8AEB6",
"v	c #A7ADB5",
"w	c #A5B2AD",
".....................................+++++",
"@@@@@@@@@@@@@@@@@@@@@@@@@@@@#@@#@#@@######",
"@@@@@@@@@@@@@@@$$$$$$@@@@@@@@@@@@@@@@@@@@@",
"%%%%%%%%%%%%%%&*==-==&%%%%%%%%%%%%%%%%%%%%",
"$$$$$$$$$$$$$;>>>>,,'>;$$$$$$$;;;;;;$$$$$$",
"$$$$$$$$$$$$$;>,'),)'>;$$$$$$;!>>~>>;$$$$$",
"$${{$$${{$$$]*>)^/(>(;*{$$${;>>>(,,'>;$$$$",
"%%%%%%%%%%%%&=_^:(&%%&&%%&&&&=_~<_<~=&%{${",
"%%%%%%%%%%%%&=:::=&&===&===*==<:<===&&%%%%",
"%%%%%%%%%%%%%&<::==&=__==*__/<^:(&%%&&%%%%",
"@@@@@@@@@@@@@@;,,>>;$*!;;>,^[}|:=&&==&%%%%",
"@@@@@{$$$@@@@@{;(11111111))||22|;;$;=&%%%%",
"@@@$$;;;;$$@@@@@$11111111)>;,^}|~>;$3%%%%%",
"@%@*;;=!_>;&@%@114444444411__)5/<=&&%%%%%%",
"%%&=_=__~<_*&%%114444444411^:5<_=&%%%%%%%%",
"%%&=_/6~~~==&1144774488884411=%%&%%%%%%%%%",
"{%&*/^9=&{{&&1144774488884411$*&*%$${$$$$$",
"$$()00,;$$;11448844448888884411a;$$$$$$$$$",
"$$;)||,;;>,11448844448888884411;$$$$$$$$$$",
"$$$>)|),>;;bb448888bbbb888844bb$$$$$$$$$$$",
"%{{&=_~~=&3bb448888bbbb888844bb{${%{$$$$$$",
"%%%%%&==&%%ccbb88bbddddbb88bbcc%%%%%%%%%%%",
"@@@@@@@@@@@ccbb88bbddddbb88bbcc@@@@@@@@@@@",
"###########cc77bbbbddddbbbbddcc#####@#@@@@",
"...........cc77bbbbddddbbbbddcc..........e",
"+++++++++++##cc7777bbbb7777cc++++######++.",
"fffffffff++##cc7777bbbb7777ccfgg.@@@@@@h.g",
"ffffffff+####i#ccdd7777ddccffff+#@#%i$&i+f",
"jjjjjjjjk@.@@l$ccdd7777ddccjjjjmno$p$qqi#+",
"jjrjjjjfg@$;i@$@.ccccccccjjjjjjm.$sti##+++",
"fffffff+.%_;i++++ccccccccffffff+iu_&+gf++.",
"fffffff+iuv=++f+++ffffwffffffff#qaa$..h@##",
"+++++++#q,v>##i&i#+++++++++++++#qvv=iiii#.",
"........{>,,*$@$@...............@;>>;$@@.e",
"eeeeeeee%&-_=&&%eeeeeeeeeeeeeeeee%q=qqi###",
"@@@@@@@@@@$;;;$@@@@@@@@@@@@@@@@@@@$$$$@@@@",
"@@@@@@@@@@@@$@@@@@@@@@@@@@@@@@@@@@@@@@@@@@",
"@@@@@@@@@@@@@@@@@@@@@@@@@@@@@@@@@@@%@@@%%%",
"%%@@%%%@@%%%@@%%%@@%%%@@%%%@@%%%@@%%%@@%%%",
"@@@@@@@@@@@@@@@@@@@@@@@@@@@@@@@@@@@@@@@@@@",
"@@@@@@@@@@@@@@@@@@@@@@@@@@@@@@@@@@@@@@@@@@",
"eeeeeeeeeeeeeeeeeeeeeeeeeeeeeeeeee.e.e...."};
