/* XPM */
static char * treez_xpm[] = {
"42 42 51 1",
" 	c None",
".	c #ABB2BA",
"+	c #ACB2BA",
"@	c #AAB1B9",
"#	c #282828",
"$	c #ABB1B9",
"%	c #AAB0B9",
"&	c #A9B0B8",
"*	c #A8AFB7",
"=	c #989898",
"-	c #003878",
";	c #A7AEB6",
">	c #A9B0B9",
",	c #B8B8B8",
"'	c #787878",
")	c #A5ADB5",
"!	c #A6ADB6",
"~	c #A8AEB7",
"{	c #A9AFB8",
"]	c #0050A8",
"^	c #D8D8D8",
"/	c #58A8F8",
"(	c #380078",
"_	c #A8AFB8",
":	c #F0E8E0",
"<	c #585858",
"[	c #A7AEB7",
"}	c #A5ACB4",
"|	c #D0E8F8",
"1	c #F8F8F8",
"2	c #7070F8",
"3	c #D0D0F8",
"4	c #3838F8",
"5	c #ABB1BA",
"6	c #F0E0D8",
"7	c #ADB3BB",
"8	c #AAB1BA",
"9	c #ACB3BB",
"0	c #1888F8",
"a	c #000078",
"b	c #AAB0B8",
"c	c #ADB4BC",
"d	c #A9AFB7",
"e	c #AEB4BC",
"f	c #000000",
"g	c #0000C8",
"h	c #A6ADB5",
"i	c #A7ADB5",
"j	c #A7ADB7",
"k	c #A7ADB6",
"l	c #9090F8",
".....................................+++++",
"@@@@@@@@@@@@@@@@@#########@@$@@$@$@@$$$$$$",
"@@@@@@@@@@@@@@###############@@@@@@@@@@@@@",
"%%%%%%%%%%%%%#################%%%%%%%%%%%%",
"&&&&&&&&&&&#####################****&&&&&&",
"&&&&&&&&&=#######-----###########=;;*&&&&&",
"&&>>&&&>=,#####-----#-#-#########'');*&&&&",
"%%%%%%%%#####-#--##----############!~{%>&>",
"%%%%%%%=,###-#-]]---]]#-##########='{{%%%%",
"%%%%%%,,,##-##-#--]-]-----########=''{%%%%",
"@@@@@@,,^###--]--/]]-]#--#--######=''{%%%%",
"@@@@@,,,^(#--(--]]]-]]----########==''%%%%",
"@@@&&,,^-#-(-----]-]-----#--#######=='%%%%",
"@%@_,,,^^:-((-]]-]-]-----(##-####,,=''<%%%",
"%%{~,,^^^::--(----]]--((----(###^,,==''%%%",
"%%{~,,^^:^::((----]-](-(--(#-##^^,,=='<%%%",
">%{_=^^^^^:::--(-(-(-(-(--#-(#^^^,,,=''&&&",
"&&[},,,^::::::-------(---(-###^^^^,===<&&&",
"&&*},,^^^::::#:(:--(--((--:-^#^^,,,,=''&&&",
"&&&;,,^^^||:##1:1:1(((--::^:^^#^,,,=='#&&&",
"%>>{-,^^^|:1#|:#:#1:|:|:#:##::#^^,,=='#&&&",
"%%%%#,^^^::::###:###1#:##::#:##^^,==''#%%%",
"@@@@#',^^:::|:1#1::|:#:##:|##^^^,,===,#@@@",
"$$$$,2-,^^:::::::11##|#::::^:^^,,,==#3#@@@",
"....'-#(^^^|::::|::|#::##::^^^,^,==##4'..5",
"++++4#-(-^^6:::1::|:#::#:::^^^,,,=####4++.",
"77777'##,-^^^|:::::1''':::^^^^,,,#,##<@8.9",
"777777#,34(^^:||:::,0a0,:^^^^,,=#42'#&{b+7",
"cccccc'#24--(^|^:|,aaaaa,^^^^,###24#<ddb$+",
"ccec^^^'##(#-,,(-']aaaaa]'##,,#####<^^,+++",
"7777^^^,'####32'(']aaaaa]'#,32####<,^^^++.",
"7777=,=f4''#-24'(']a4g4a]'#,24##<<4f=,=@$$",
"++++2g4$dh''#''(#']44244]'##'##<<ii~4g4b$.",
"....442.>;h'''###']24442]'###<<<@*;;244@.5",
"55555555%{jk~''''']22222]'''<'555%d~ddb$$$",
"@@@@@@@@@@&**^^,<<=lllll=<<,^^@@@@&&&&@@@@",
"@@@@@@@@@@@@1^^,4<<<<<<<<<41^^,@@@@@@@@@@@",
"@@@@@@@@@@@@^^^f@@@@@@@@@@@f^^^@@@@%@@@%%%",
"%%@@%%%@@%%%=,=%%@@%%%@@%%%@,,=%@@%%%@@%%%",
"@@@@@@@@@@@@444@@@@@@@@@@@@@424@@@@@@@@@@@",
"@@@@@@@@@@@@444@@@@@@@@@@@@@444@@@@@@@@@@@",
"5555555555555555555555555555555555.5.5...."};
