/* XPM */
static char * ground2_xpm[] = {
"42 42 64 1",
" 	c None",
".	c #ABB2BA",
"+	c #ACB2BA",
"@	c #AAB1B9",
"#	c #ABB1B9",
"$	c #A9B0B8",
"%	c #AAB0B9",
"&	c #A9AFB8",
"*	c #A8AFB8",
"=	c #A8AEB7",
"-	c #A7ADB7",
";	c #A8AFB7",
">	c #A7AEB6",
",	c #A6ADB5",
"'	c #A5ADB5",
")	c #A5ACB4",
"!	c #A7AFB7",
"~	c #A6ADB6",
"{	c #A9B0B9",
"]	c #A8AFB9",
"^	c #A4ABB4",
"/	c #A5ACB5",
"(	c #A7AEB7",
"_	c #A7ADB6",
":	c #A5ABB4",
"<	c #A6ACB5",
"[	c #A3AAB2",
"}	c #A2AAB2",
"|	c #A4ABB3",
"1	c #A3AAB3",
"2	c #A3ABB3",
"3	c #A9AFB9",
"4	c #A2A9B1",
"5	c #A4AAB3",
"6	c #A4AAB4",
"7	c #A3A9B2",
"8	c #A5ABB5",
"9	c #A6ACB6",
"0	c #A2A8B1",
"a	c #A3A9B3",
"b	c #A1A8B2",
"c	c #A0A7B1",
"d	c #A2A9B2",
"e	c #A6AEB6",
"f	c #969DA8",
"g	c #ABB1BA",
"h	c #ADB3BB",
"i	c #ACB3BB",
"j	c #AAB1BA",
"k	c #AAB0B8",
"l	c #ADB4BC",
"m	c #ABB3BB",
"n	c #A9B1B9",
"o	c #ACB3BA",
"p	c #ABB2B9",
"q	c #AAB1B8",
"r	c #A9B0B7",
"s	c #A9AFB7",
"t	c #AEB4BC",
"u	c #A8AFB6",
"v	c #A8B0B7",
"w	c #A8AEB6",
"x	c #A7ADB5",
"y	c #8B939F",
".....................................+++++",
"@@@@@@@@@@@@@@@@@@@@@@@@@@@@#@@#@#@@######",
"@@@@@@@@@@@@@@@$$$$$$@@@@@@@@@@@@@@@@@@@@@",
"%%%%%%%%%%%%%%&*==-==&%%%%%%%%%%%%%%%%%%%%",
"$$$$$$$$$$$$$;>>>>,,'>;$$$$$$$;;;;;;$$$$$$",
"$$$$$$$$$$$$$;>,'),)'>;$$$$$$;!>>~>>;$$$$$",
"$${{$$${{$$$]*>)^/(>(;*{$$${;>>>(,,'>;$$$$",
"%%%%%%%%%%%%&=_^:(&%%&&%%&&&&=_~<_<~=&%{${",
"%%%%%%%%%%%%&=:::=&&===&===*==<:<===&&%%%%",
"%%%%%%%%%%%%%&<::==&=__==*__/<^:(&%%&&%%%%",
"@@@@@@@@@@@@@@;,,>>;$*!;;>,^[}|:=&&==&%%%%",
"@@@@@{$$$@@@@@{;(>;$$$;>)))||11|;;$;=&%%%%",
"@@@$$;;;;$$@@@@@$$$@{$;^2)>;,^}|~>;$3%%%%%",
"@%@*;;=!_>;&@%@@%@%@$=,14/___)5/<=&&%%%%%%",
"%%&=_=__~<_*&%%%%%%%3=657/5^:5<_=&%%%%%%%%",
"%%&=_/8~~~==&%%%%%%%%&9510a<_=%%&%%%%%%%%%",
"{%&*/^9=&{{&&%{{%%%{{%=:bcd<=$*&*%$${$$$$$",
"$$()22,;$$;;;$$$$$$$$$$,dd4>;(,e;$$$$$$$$$",
"$$;)||,;;>,($$$$$$$$$$$*,[|',;;;$$$$$$$$$$",
"$$$>)|),>;;$$$$$$$$$$$$$;e,,~>;$$$$$$$$$$$",
"%{{&=_~~=&3{{%/f{{%%%{{%%&(>(&%{${%{$$$$$$",
"%%%%%&==&%%%%%/f%%%%%%%%%%%%%%%%%%%%%%%%%%",
"@@@@@@@@@@@@@@@@@@@@@@@@@@@@@@@@@@@@@@@@@@",
"####################################@#@@@@",
".........................................g",
"+++++++++++####++++++++++++++++++######++.",
"hhhhhhhhh++###++hhhhhhhhhhiihhii.@@@@@@j.i",
"hhhhhhhh+####k#@+hhhhhhhhhhhhhh+#@#%k$&k+h",
"llllllllm@.@@n${.illlllllllllllopq$r$ssk#+",
"lltllllhi@$;k@$@.hlllltllllllllo.$uvk##+++",
"hhhhhhh+.%_;k+++++h+:hhhhhhhhhh+kw_&+ih++.",
"hhhhhhh+kwx=++h+++h:yhhhhhhhhhh#see$..j@##",
"+++++++#s,x>##k&k#+++++++++++++#sxx=kkkk#.",
"........{>,,*$@$@...............@;>>;$@@.g",
"gggggggg%&-_=&&%ggggggggggggggggg%s=ssk###",
"@@@@@@@@@@$;;;$@@@@@@@@@@@@@@@@@@@$$$$@@@@",
"@@@@@@@@@@@@$@@@@@@@@@@@@@@@@@@@@@@@@@@@@@",
"@@@@@@@@@@@@@@@@@@@@@@@@@@@@@@@@@@@%@@@%%%",
"%%@@%%%@@%%%@@%%%@@%%%@@%%%@@%%%@@%%%@@%%%",
"@@@@@@@@@@@@@@@@@@@@@@@@@@@@@@@@@@@@@@@@@@",
"@@@@@@@@@@@@@@@@@@@@@@@@@@@@@@@@@@@@@@@@@@",
"gggggggggggggggggggggggggggggggggg.g.g...."};
