/* XPM */
static char * P_A_xpm[] = {
"42 42 356 2",
"  	c None",
". 	c #ACB2BA",
"+ 	c #ABB2BA",
"@ 	c #9EA4AC",
"# 	c #9BA1A8",
"$ 	c #64686D",
"% 	c #6F6F6F",
"& 	c #91979D",
"* 	c #ABB1B9",
"= 	c #AAB1B9",
"- 	c #A4AAB2",
"; 	c #878D93",
"> 	c #3E4145",
", 	c #F0EAE9",
"' 	c #DADADA",
") 	c #F5F5FC",
"! 	c #C2C2C2",
"~ 	c #8B8787",
"{ 	c #3A3D40",
"] 	c #83888E",
"^ 	c #53575B",
"/ 	c #808080",
"( 	c #FFFFFF",
"_ 	c #FEFEFE",
": 	c #FEFEFF",
"< 	c #FAFAFD",
"[ 	c #FBFBFB",
"} 	c #FDFBFB",
"| 	c #53565A",
"1 	c #AAB0B9",
"2 	c #9A9FA7",
"3 	c #797E84",
"4 	c #505050",
"5 	c #D5D5D5",
"6 	c #E1E1E1",
"7 	c #F8F8F8",
"8 	c #E6E6E6",
"9 	c #90969D",
"0 	c #A9B0B8",
"a 	c #A8AFB7",
"b 	c #92989F",
"c 	c #1B1B1B",
"d 	c #383838",
"e 	c #3F3F3F",
"f 	c #EEF1F1",
"g 	c #898686",
"h 	c #A9A9A9",
"i 	c #2D2D2D",
"j 	c #9399A0",
"k 	c #A7AEB6",
"l 	c #A6ADB6",
"m 	c #65696E",
"n 	c #6B8683",
"o 	c #698E8A",
"p 	c #27413F",
"q 	c #003E3E",
"r 	c #023535",
"s 	c #FBFAFA",
"t 	c #929090",
"u 	c #A5A5A5",
"v 	c #666A6F",
"w 	c #A5ADB5",
"x 	c #A6ADB5",
"y 	c #A0A7AF",
"z 	c #81A8A7",
"A 	c #B2FAF3",
"B 	c #A8FDF6",
"C 	c #8DFDF8",
"D 	c #5AE8E4",
"E 	c #103D3C",
"F 	c #123332",
"G 	c #F9FFFE",
"H 	c #C5C4C4",
"I 	c #C4C4C4",
"J 	c #5B6064",
"K 	c #A3AAB2",
"L 	c #A9B0B9",
"M 	c #A9AFB8",
"N 	c #A8AEB7",
"O 	c #A6ACB5",
"P 	c #94B5B6",
"Q 	c #B3FBF4",
"R 	c #B1FCF5",
"S 	c #90FEF7",
"T 	c #82FEF8",
"U 	c #77FEF9",
"V 	c #73FFFA",
"W 	c #33514E",
"X 	c #1F3332",
"Y 	c #A5A3A3",
"Z 	c #D1D4D8",
"` 	c #ACEBE6",
" .	c #B4FCF5",
"..	c #A4FDF6",
"+.	c #80FEF8",
"@.	c #7FFEF9",
"#.	c #85FEF8",
"$.	c #245957",
"%.	c #233634",
"&.	c #567C78",
"*.	c #EDECEC",
"=.	c #A5C4C6",
"-.	c #B0F7F0",
";.	c #99FDF7",
">.	c #86FEFA",
",.	c #98FFFC",
"'.	c #4C8381",
").	c #36504D",
"!.	c #B9B8B8",
"~.	c #B2B2B2",
"{.	c #B8B7B7",
"].	c #F5F5F5",
"^.	c #9DA3AB",
"/.	c #A9B3BB",
"(.	c #B2F5EF",
"_.	c #B5FCF5",
":.	c #A9FEFA",
"<.	c #9AFFFB",
"[.	c #BDFFFC",
"}.	c #98FEFB",
"|.	c #44625F",
"1.	c #283D3B",
"2.	c #989696",
"3.	c #8D8A8A",
"4.	c #CE9A9A",
"5.	c #7E7878",
"6.	c #ECEBEB",
"7.	c #F7F7F7",
"8.	c #9DA0A4",
"9.	c #ABC6C9",
"0.	c #B1F4EE",
"a.	c #B5FCF6",
"b.	c #C3FEFA",
"c.	c #DDFEFD",
"d.	c #E9FFFE",
"e.	c #BAFFFC",
"f.	c #8EFFFB",
"g.	c #73A7A3",
"h.	c #666A69",
"i.	c #69706F",
"j.	c #868484",
"k.	c #717574",
"l.	c #959393",
"m.	c #E8AFAF",
"n.	c #FC9595",
"o.	c #EE9797",
"p.	c #A19292",
"q.	c #B19A9A",
"r.	c #F3EEEE",
"s.	c #C9CACB",
"t.	c #A9AFB9",
"u.	c #AFDEDC",
"v.	c #B3F8F2",
"w.	c #D3FEFB",
"x.	c #EEFFFE",
"y.	c #B2FFFC",
"z.	c #82FEF9",
"A.	c #92FDF8",
"B.	c #4D6F6C",
"C.	c #3D4847",
"D.	c #B76460",
"E.	c #AF8F8B",
"F.	c #FF7D7D",
"G.	c #A39090",
"H.	c #959191",
"I.	c #B7B8B9",
"J.	c #B2EFEA",
"K.	c #B1F8F1",
"L.	c #B3FCF5",
"M.	c #D0FEFB",
"N.	c #8AFEF8",
"O.	c #76A7A2",
"P.	c #BC5E5A",
"Q.	c #F57A7A",
"R.	c #FE7D7D",
"S.	c #A78D8D",
"T.	c #897F7F",
"U.	c #A7ADB6",
"V.	c #A7AFB7",
"W.	c #A8AFB8",
"X.	c #B3F4EF",
"Y.	c #B1F7F0",
"Z.	c #ADFDF6",
"`.	c #AEFCF5",
" +	c #9AFDF7",
".+	c #638D89",
"++	c #534B48",
"@+	c #F08181",
"#+	c #424242",
"$+	c #B1EAE6",
"%+	c #B2F9F2",
"&+	c #9EFEF7",
"*+	c #AAFEF7",
"=+	c #213331",
"-+	c #71403E",
";+	c #F87B7B",
">+	c #676767",
",+	c #A5ABB5",
"'+	c #A5ACB5",
")+	c #AFDFDD",
"!+	c #96FEF7",
"~+	c #A7FDF6",
"{+	c #AFFDF6",
"]+	c #8FFDF8",
"^+	c #C97673",
"/+	c #FE7C7C",
"(+	c #696969",
"_+	c #A6ACB6",
":+	c #A4ABB4",
"<+	c #ADCFD0",
"[+	c #9FFDF7",
"}+	c #7EFEF9",
"|+	c #8EFDF8",
"1+	c #A7534F",
"2+	c #F84F4F",
"3+	c #825252",
"4+	c #A3ABB3",
"5+	c #A5ACB4",
"6+	c #A7AEB7",
"7+	c #B0F6EF",
"8+	c #96FDF7",
"9+	c #84FEF8",
"0+	c #71FFF9",
"a+	c #68FFFA",
"b+	c #2F514E",
"c+	c #BB5E5B",
"d+	c #FF7070",
"e+	c #FF0000",
"f+	c #777C82",
"g+	c #A4ABB3",
"h+	c #A6D1D0",
"i+	c #ACE7E1",
"j+	c #8CFDF8",
"k+	c #7FFEF8",
"l+	c #56FFFB",
"m+	c #11514F",
"n+	c #494B49",
"o+	c #F84E4C",
"p+	c #858B91",
"q+	c #A0A6AF",
"r+	c #95CBC7",
"s+	c #B0EDE6",
"t+	c #9DFDF7",
"u+	c #83FEF8",
"v+	c #81FDF8",
"w+	c #5AE6E2",
"x+	c #002D2D",
"y+	c #322B2B",
"z+	c #D29695",
"A+	c #FF7C7C",
"B+	c #575A60",
"C+	c #000000",
"D+	c #D0D4D8",
"E+	c #98D1CC",
"F+	c #87FCF7",
"G+	c #376A68",
"H+	c #333333",
"I+	c #622222",
"J+	c #F83939",
"K+	c #FE7171",
"L+	c #FF7B7B",
"M+	c #4F5257",
"N+	c #9BA1A9",
"O+	c #F2F2F7",
"P+	c #9FA6AD",
"Q+	c #22302E",
"R+	c #3A514E",
"S+	c #3B5957",
"T+	c #484442",
"U+	c #831616",
"V+	c #EF6F6F",
"W+	c #FE3838",
"X+	c #320B03",
"Y+	c #F2F2F6",
"Z+	c #EEEDEE",
"`+	c #967A7C",
" @	c #764D4F",
".@	c #8C2E14",
"+@	c #FF7676",
"@@	c #FF6F6F",
"#@	c #FF7474",
"$@	c #FF5656",
"%@	c #FF5959",
"&@	c #5D3C2D",
"*@	c #BCBCBC",
"=@	c #ABB1BA",
"-@	c #E5E7E9",
";@	c #CFA1A3",
">@	c #E48C8F",
",@	c #D46E6E",
"'@	c #FD8584",
")@	c #FC8C8A",
"!@	c #FE6564",
"~@	c #995144",
"{@	c #3C1D1D",
"]@	c #6F3B3B",
"^@	c #888E95",
"/@	c #EBECED",
"(@	c #936160",
"_@	c #986F71",
":@	c #78403D",
"<@	c #6E220E",
"[@	c #AB4C48",
"}@	c #3E1A17",
"|@	c #9B8484",
"1@	c #F0EEEE",
"2@	c #ACB3BB",
"3@	c #AAB1BA",
"4@	c #ADB3BB",
"5@	c #8F8084",
"6@	c #9A949A",
"7@	c #784040",
"8@	c #F5F5F9",
"9@	c #AAB0B8",
"0@	c #A9AFB7",
"a@	c #A9B0B7",
"b@	c #AAB1B8",
"c@	c #ABB2B9",
"d@	c #ACB3BA",
"e@	c #ADB4BC",
"f@	c #383878",
"g@	c #FFF6F6",
"h@	c #FFFBFB",
"i@	c #8A9096",
"j@	c #A8B0B7",
"k@	c #A8AFB6",
"l@	c #BAB3D0",
"m@	c #B0B0D0",
"n@	c #AEB4BC",
"o@	c #A8AEB6",
"p@	c #A6AEB6",
"q@	c #8A8F96",
"r@	c #A7ADB5",
"s@	c #2B2B5F",
"t@	c #AEB1C5",
"u@	c #898E95",
"v@	c #D48DA7",
"w@	c #70A0C0",
"x@	c #58809A",
"y@	c #FFBCBC",
"z@	c #BF2A2A",
"A@	c #7C8187",
"B@	c #9AA0A8",
"C@	c #33336E",
"D@	c #7C8087",
"E@	c #9398A0",
"F@	c #A0A6AE",
"G@	c #A0A7AE",
"H@	c #A1A6AF",
"I@	c #26282A",
"J@	c #4F5357",
"K@	c #888D94",
"L@	c #70757A",
"M@	c #323437",
"N@	c #9CA3AA",
"O@	c #7D8188",
". . . . . + + + + + + + + + + + @ # $ % % $ & @ + + + + + + + + + + + + + + + + + + ",
"* * * * * * = = * = * = = - ; ; > , ' ) ) ! ~ { ; ; - = = = = = = = = = = = = = = = ",
"= = = = = = = = = = = = ] ^ / ( ( ( _ : < [ _ _ } / | ] = = = = = = = = = = = = = = ",
"1 1 1 1 1 1 1 1 1 1 2 3 4 5 6 ( ( ( ( ( ( ( ( ( ( 7 8 4 3 9 1 1 1 1 1 1 1 1 1 1 1 1 ",
"0 0 0 0 0 0 a a a b c d e % f ( ( ( ( ( ( ( ( ( ( ( ( g h i j 0 0 0 0 0 0 0 0 0 0 0 ",
"0 0 0 0 0 a k k l m n o p q r ( ( ( ( ( ( ( ( ( ( ( s t ( u v 0 0 0 0 0 0 0 0 0 0 0 ",
"0 0 0 0 a k w x y z A B C D E F ( ( G ( ( ( ( ( ( ( ( H I ( J K 0 L L 0 0 0 L L 0 0 ",
"L 0 L 1 M N l O P Q R S T U V W X ( ( ( ( ( ( ( ( ( ( Y Y ( ( ( ( ( ( ( Z 1 1 1 1 1 ",
"1 1 1 1 M M N N `  ...T T +.@.#.$.%.&.( ( ( ( ( ( ( ( ( t *.( ( ( ( ( ( ( ( ( 1 1 1 ",
"1 1 1 1 M M 1 =.-. . .....;.T >.,.'.).).( ( ( ( ( ( H !.~.{.( ].^.1 1 1 1 Z ( ( 1 1 ",
"1 1 1 1 M N /.(. . . . . ._.:.<.[.}.:.|.1.( ( ( H 2.H 3.4.5.6.7.8.= = = = = = ( ( = ",
"1 1 1 1 M N 9.0. . . . . .a.b.c.d.e.f.g.).h.i.j.k.l.m.n.o.p.q.r.s.0 0 0 L = = ( ( = ",
"1 1 1 1 1 t.u.v. . . . . . .a.w.x.y.z.A.B.C.D.E.F.F.F.F.F.F.G.H.I.a a a a 0 0 = ( ( ",
"1 1 1 1 1 1 J.K. . . . .L. . . .M.N.T A.O.1.P.F.F.F.F.F.F.Q.R.S.T.U.V.N a a W.= ( Z ",
"1 1 1 1 1 1 X.Y. . . .L.Z.L. . .`.#.T  +.+++F.F.F.F.F.F.F.F.F.@+#+l U.U.N U.N M ( ( ",
"1 1 1 1 1 1 $+%+ . . .L.&+*+ . .;.T T ;.=+-+F.F.F.F.F.F.F.F.F.;+>+l l ,+'+U.N M ( ( ",
"0 0 0 0 0 L )+Y. . . . .!+~+{+L.]+T #.`.=+^+F.F.F.F.F.F.F.F.F./+(+M N _+:+'+W.M ( ( ",
"0 0 0 0 0 0 <+%+ . . . . . . .[+@.}+|+=+1+F.F.F.F.F.F.F.F.F.F.2+3+0 a x 4+4+5+6+( ( ",
"0 0 0 0 0 0 0 7+ . . . . . .8+9+0+a+b+c+F.F.d+F.F.F.F.F.F.F.e+e+f+a x 4+g+g+5+a ( ( ",
"0 0 0 0 0 0 0 h+i+ . .R ~+j+T k+l+m+n+o+F.F.F.F.F.F.F.F.F.F.e+e+3 p+4+4+g+5+k 0 ( 0 ",
"0 0 0 0 0 0 L q+r+s+R t+u+T v+w+x+y+z+F.F.F.F.F.A+F.F.F.F.e+e+B+C+C+C+C+0 0 M D+( 1 ",
"1 1 1 1 1 1 1 1 ^.E+%+t+#.F+G+H+I+J+K+F.F.F.F.L+F.F.F.F.e+e+M+N+O+( ( ( C+1 1 ( ( 1 ",
"= = = = = = = = = P+Q+R+S+T+U+V+W+F.F.F.F.F.F.F.F.F.e+e+e+X+C+Y+( ( ( ( C+= ( ( = = ",
"= = = = * = * * * Z+`+ @.@+@F.@@#@F.F.F.F.F.$@%@e+e+e+e+&@C+*@( ( ( ( ( C+( ( * * * ",
"=@+ + + + + + + + -@;@>@,@F.'@F.F.F.)@F.F.F.!@!@e+e+~@{@]@( ( ( ( ( ( ( C+^@+ + + + ",
"+ . . * * * * * * . /@(@_@:@<@[@[@<@<@<@<@<@<@<@<@<@}@|@1@( ( ( ( ( ( ( C+. . . . . ",
"2@+ 3@= = = = = = + 2@2@4@5@6@e+e+7@7@7@7@C+C+C+C+e+e+8@( ( ( ( ( ( ( ( C+4@4@4@4@4@",
"4@. 9@M 0 9@1 * = * . 4@4@4@4@e+e+7@7@7@7@C+C+C+C+e+e+( ( ( ( ( ( ( ( ( C+4@4@4@4@4@",
". * 9@0@0@0 a@0 b@c@d@e@e@e@e@e+e+f@f@C+C+f@f@f@f@C+C+( ( g@h@e+e+e+e+e+C+i@e@e@e@e@",
". . . * * 9@j@k@0 + d@e@e@e@e@e+e+f@f@C+C+f@f@f@f@f@C+C+e+e+e+e+l@m@m@m@C+C+e@n@e@e@",
"+ . . 4@2@. M U.o@9@. 4@4@4@4@C+C+f@f@C+C+f@f@f@f@f@f@C+C+m@m@m@m@m@m@m@C+C+4@4@4@4@",
"* * = 3@+ + 0 p@p@0@* 4@4@4@4@C+C+f@f@C+C+f@f@f@f@f@f@f@C+C+m@m@m@m@m@m@C+q@4@4@4@4@",
"+ * 9@9@9@9@N r@r@0@* . . . . . . C+C+C+C+f@s@C+f@f@f@f@( C+m@m@m@m@m@t@C+u@. . . . ",
"=@+ = = 0 a k k a = + + + + + + + C+C+C+C+f@f@f@C+C+f@( ( e+v@m@m@m@m@C+C++ + + + + ",
"* * * 9@0@0@N 0@1 =@=@=@=@=@=@=@=@C+C+w@w@w@w@w@x@C+( y@e+e+C+C+C+C+C+=@=@=@=@=@=@=@",
"= = = = 0 0 0 0 = = = = = = = = = C+C+w@w@w@w@w@w@w@C+z@e+C+C+C+C+C+C+= = = = = = = ",
"= = = = = = = = = = = = = A@B@B@B@C+C+f@f@f@f@f@f@C+C+A@= 0 = = = = = = = = = = = = ",
"1 1 1 = = = 1 = = = = = A@C+C+C+C+C+C+C@f@f@f@f@C@C+C+C+A@= = = = = = = = = = = = = ",
"1 1 1 = = 1 1 1 = = 1 1 D@C+C+C+C+C+C+C+E@F@G@G@H@I@C+C+A@= 1 1 1 = = 1 1 1 = = 1 1 ",
"= = = = = = = = = = = = = A@J@J@J@C+C+K@a = = = L@C+C+M@= = = = = = = = = = = = = = ",
"= = = = = = = = = = = = = = = = = = N@a = = = = A@C+M@= = = = = = = = = = = = = = = ",
"+ + + + =@+ =@+ =@=@=@=@=@=@=@=@=@=@=@=@=@=@=@=@=@O@=@=@=@=@=@=@=@=@=@=@=@=@=@=@=@=@"};
