/* XPM */
static char * P_A1_xpm[] = {
"42 42 344 2",
"  	c None",
". 	c #ACB2BA",
"+ 	c #ABB2BA",
"@ 	c #9EA4AC",
"# 	c #9BA1A8",
"$ 	c #64686D",
"% 	c #6F6F6F",
"& 	c #91979D",
"* 	c #ABB1B9",
"= 	c #AAB1B9",
"- 	c #A4AAB2",
"; 	c #878D93",
"> 	c #3E4145",
", 	c #F0EAE9",
"' 	c #DADADA",
") 	c #F5F5FC",
"! 	c #C2C2C2",
"~ 	c #8B8787",
"{ 	c #3A3D40",
"] 	c #83888E",
"^ 	c #53575B",
"/ 	c #808080",
"( 	c #FFFFFF",
"_ 	c #FEFEFE",
": 	c #FEFEFF",
"< 	c #FAFAFD",
"[ 	c #FBFBFB",
"} 	c #FDFBFB",
"| 	c #53565A",
"1 	c #AAB0B9",
"2 	c #9A9FA7",
"3 	c #797E84",
"4 	c #505050",
"5 	c #D5D5D5",
"6 	c #E1E1E1",
"7 	c #F8F8F8",
"8 	c #E6E6E6",
"9 	c #90969D",
"0 	c #A9B0B8",
"a 	c #A8AFB7",
"b 	c #92989F",
"c 	c #1B1B1B",
"d 	c #383838",
"e 	c #3F3F3F",
"f 	c #EEF1F1",
"g 	c #898686",
"h 	c #A9A9A9",
"i 	c #2D2D2D",
"j 	c #9399A0",
"k 	c #A7AEB6",
"l 	c #A6ADB6",
"m 	c #65696E",
"n 	c #6B8683",
"o 	c #698E8A",
"p 	c #27413F",
"q 	c #003E3E",
"r 	c #023535",
"s 	c #FBFAFA",
"t 	c #929090",
"u 	c #A5A5A5",
"v 	c #666A6F",
"w 	c #A5ADB5",
"x 	c #A6ADB5",
"y 	c #A0A7AF",
"z 	c #81A8A7",
"A 	c #B2FAF3",
"B 	c #A8FDF6",
"C 	c #8DFDF8",
"D 	c #5AE8E4",
"E 	c #103D3C",
"F 	c #123332",
"G 	c #F9FFFE",
"H 	c #C5C4C4",
"I 	c #C4C4C4",
"J 	c #5B6064",
"K 	c #A3AAB2",
"L 	c #A9B0B9",
"M 	c #A9AFB8",
"N 	c #A8AEB7",
"O 	c #A6ACB5",
"P 	c #94B5B6",
"Q 	c #B3FBF4",
"R 	c #B1FCF5",
"S 	c #90FEF7",
"T 	c #82FEF8",
"U 	c #77FEF9",
"V 	c #73FFFA",
"W 	c #33514E",
"X 	c #1F3332",
"Y 	c #A5A3A3",
"Z 	c #ACEBE6",
"` 	c #B4FCF5",
" .	c #A4FDF6",
"..	c #80FEF8",
"+.	c #7FFEF9",
"@.	c #85FEF8",
"#.	c #245957",
"$.	c #233634",
"%.	c #567C78",
"&.	c #EDECEC",
"*.	c #ABB1BA",
"=.	c #A5C4C6",
"-.	c #B0F7F0",
";.	c #99FDF7",
">.	c #86FEFA",
",.	c #98FFFC",
"'.	c #4C8381",
").	c #36504D",
"!.	c #B9B8B8",
"~.	c #B2B2B2",
"{.	c #B8B7B7",
"].	c #F5F5F5",
"^.	c #9DA3AB",
"/.	c #ACB3BB",
"(.	c #A9B3BB",
"_.	c #B2F5EF",
":.	c #B5FCF5",
"<.	c #A9FEFA",
"[.	c #9AFFFB",
"}.	c #BDFFFC",
"|.	c #98FEFB",
"1.	c #44625F",
"2.	c #283D3B",
"3.	c #989696",
"4.	c #8D8A8A",
"5.	c #CE9A9A",
"6.	c #7E7878",
"7.	c #ECEBEB",
"8.	c #F7F7F7",
"9.	c #9DA0A4",
"0.	c #D1D4D8",
"a.	c #ABC6C9",
"b.	c #B1F4EE",
"c.	c #B5FCF6",
"d.	c #C3FEFA",
"e.	c #DDFEFD",
"f.	c #E9FFFE",
"g.	c #BAFFFC",
"h.	c #8EFFFB",
"i.	c #73A7A3",
"j.	c #666A69",
"k.	c #69706F",
"l.	c #868484",
"m.	c #717574",
"n.	c #959393",
"o.	c #E8AFAF",
"p.	c #FC9595",
"q.	c #EE9797",
"r.	c #A19292",
"s.	c #B19A9A",
"t.	c #F3EEEE",
"u.	c #C9CACB",
"v.	c #A9AFB9",
"w.	c #AFDEDC",
"x.	c #B3F8F2",
"y.	c #D3FEFB",
"z.	c #EEFFFE",
"A.	c #B2FFFC",
"B.	c #82FEF9",
"C.	c #92FDF8",
"D.	c #4D6F6C",
"E.	c #3D4847",
"F.	c #B76460",
"G.	c #AF8F8B",
"H.	c #FF7D7D",
"I.	c #A39090",
"J.	c #959191",
"K.	c #B7B8B9",
"L.	c #A8AFB8",
"M.	c #B2EFEA",
"N.	c #B1F8F1",
"O.	c #B3FCF5",
"P.	c #D0FEFB",
"Q.	c #8AFEF8",
"R.	c #76A7A2",
"S.	c #BC5E5A",
"T.	c #F57A7A",
"U.	c #FE7D7D",
"V.	c #A78D8D",
"W.	c #897F7F",
"X.	c #A7ADB6",
"Y.	c #A7AFB7",
"Z.	c #D0D3D7",
"`.	c #A7AEB7",
" +	c #B3F4EF",
".+	c #B1F7F0",
"++	c #ADFDF6",
"@+	c #AEFCF5",
"#+	c #9AFDF7",
"$+	c #638D89",
"%+	c #534B48",
"&+	c #F08181",
"*+	c #424242",
"=+	c #B1EAE6",
"-+	c #B2F9F2",
";+	c #9EFEF7",
">+	c #AAFEF7",
",+	c #213331",
"'+	c #71403E",
")+	c #F87B7B",
"!+	c #676767",
"~+	c #A5ABB5",
"{+	c #A5ACB5",
"]+	c #ADB3BB",
"^+	c #AFDFDD",
"/+	c #96FEF7",
"(+	c #A7FDF6",
"_+	c #AFFDF6",
":+	c #8FFDF8",
"<+	c #C97673",
"[+	c #FE7C7C",
"}+	c #696969",
"|+	c #A6ACB6",
"1+	c #A4ABB4",
"2+	c #ADCFD0",
"3+	c #9FFDF7",
"4+	c #7EFEF9",
"5+	c #8EFDF8",
"6+	c #A7534F",
"7+	c #F84F4F",
"8+	c #825252",
"9+	c #A3ABB3",
"0+	c #ADB4BC",
"a+	c #B0F6EF",
"b+	c #96FDF7",
"c+	c #84FEF8",
"d+	c #71FFF9",
"e+	c #68FFFA",
"f+	c #2F514E",
"g+	c #BB5E5B",
"h+	c #FF7070",
"i+	c #FF0000",
"j+	c #777C82",
"k+	c #868C92",
"l+	c #A4ABB3",
"m+	c #AEB4BC",
"n+	c #A6D1D0",
"o+	c #ACE7E1",
"p+	c #8CFDF8",
"q+	c #7FFEF8",
"r+	c #56FFFB",
"s+	c #11514F",
"t+	c #494B49",
"u+	c #F84E4C",
"v+	c #000000",
"w+	c #A5ACB4",
"x+	c #A0A6AF",
"y+	c #95CBC7",
"z+	c #B0EDE6",
"A+	c #9DFDF7",
"B+	c #83FEF8",
"C+	c #81FDF8",
"D+	c #5AE6E2",
"E+	c #002D2D",
"F+	c #322B2B",
"G+	c #D29695",
"H+	c #FF7C7C",
"I+	c #575A60",
"J+	c #98D1CC",
"K+	c #87FCF7",
"L+	c #376A68",
"M+	c #333333",
"N+	c #622222",
"O+	c #F83939",
"P+	c #FE7171",
"Q+	c #FF7B7B",
"R+	c #4F5257",
"S+	c #9BA1A9",
"T+	c #F2F2F7",
"U+	c #9FA6AD",
"V+	c #22302E",
"W+	c #3A514E",
"X+	c #3B5957",
"Y+	c #484442",
"Z+	c #831616",
"`+	c #EF6F6F",
" @	c #FE3838",
".@	c #320B03",
"+@	c #F2F2F6",
"@@	c #EEEDEE",
"#@	c #967A7C",
"$@	c #764D4F",
"%@	c #8C2E14",
"&@	c #FF7676",
"*@	c #FF6F6F",
"=@	c #FF7474",
"-@	c #FF5656",
";@	c #FF5959",
">@	c #5D3C2D",
",@	c #BCBCBC",
"'@	c #E5E7E9",
")@	c #CFA1A3",
"!@	c #E48C8F",
"~@	c #D46E6E",
"{@	c #FD8584",
"]@	c #FC8C8A",
"^@	c #FE6564",
"/@	c #995144",
"(@	c #3C1D1D",
"_@	c #6F3B3B",
":@	c #888E95",
"<@	c #EBECED",
"[@	c #936160",
"}@	c #986F71",
"|@	c #78403D",
"1@	c #6E220E",
"2@	c #AB4C48",
"3@	c #3E1A17",
"4@	c #9B8484",
"5@	c #F0EEEE",
"6@	c #AAB1BA",
"7@	c #8F8084",
"8@	c #9A949A",
"9@	c #784040",
"0@	c #F5F5F9",
"a@	c #FFCDCD",
"b@	c #AAB0B8",
"c@	c #A9AFB7",
"d@	c #A9B0B7",
"e@	c #AAB1B8",
"f@	c #ABB2B9",
"g@	c #ACB3BA",
"h@	c #383878",
"i@	c #C3A0BD",
"j@	c #B0B0D0",
"k@	c #A8B0B7",
"l@	c #A8AFB6",
"m@	c #BC0000",
"n@	c #A8AEB6",
"o@	c #AEADCC",
"p@	c #A6AEB6",
"q@	c #A7ADB5",
"r@	c #C0A1A9",
"s@	c #F25357",
"t@	c #F2F2F4",
"u@	c #AEB1C5",
"v@	c #BFA1A9",
"w@	c #FF9B9B",
"x@	c #E86A70",
"y@	c #58809A",
"z@	c #70A0C0",
"A@	c #FFE8E8",
"B@	c #F15357",
"C@	c #7A0000",
". . . . . + + + + + + + + + + + @ # $ % % $ & @ + + + + + + + + + + + + + + + + + + ",
"* * * * * * = = * = * = = - ; ; > , ' ) ) ! ~ { ; ; - = = = = = = = = = = = = = = = ",
"= = = = = = = = = = = = ] ^ / ( ( ( _ : < [ _ _ } / | ] = = = = = = = = = = = = = = ",
"1 1 1 1 1 1 1 1 1 1 2 3 4 5 6 ( ( ( ( ( ( ( ( ( ( 7 8 4 3 9 1 1 1 1 1 1 1 1 1 1 1 1 ",
"0 0 0 0 0 0 a a a b c d e % f ( ( ( ( ( ( ( ( ( ( ( ( g h i j 0 0 0 0 0 0 0 0 0 0 0 ",
"0 0 0 0 0 a k k l m n o p q r ( ( ( ( ( ( ( ( ( ( ( s t ( u v 0 0 0 0 0 0 0 0 0 0 0 ",
"0 0 0 0 a k w x y z A B C D E F ( ( G ( ( ( ( ( ( ( ( H I ( J K 0 L L = 0 0 L L 0 0 ",
"L 0 L 1 M N l O P Q R S T U V W X ( ( ( ( ( ( ( ( ( ( Y Y ( ( ( ( ( ( = = 1 1 1 1 1 ",
"1 1 1 1 M M N N Z `  .T T ..+.@.#.$.%.( ( ( ( ( ( ( ( ( t &.( ( ( ( ( 1 1 1 0 1 *.1 ",
"1 1 1 1 M M 1 =.-.` `  . .;.T >.,.'.).).( ( ( ( ( ( H !.~.{.( ].^.1 1 ( 0 0 0 = /.1 ",
"1 1 1 1 M N (._.` ` ` ` ` :.<.[.}.|.<.1.2.( ( ( H 3.H 4.5.6.7.8.9.= = 0.( L a 0 = = ",
"1 1 1 1 M N a.b.` ` ` ` ` c.d.e.f.g.h.i.).j.k.l.m.n.o.p.q.r.s.t.u.0 0 0 ( = a a 0 0 ",
"1 1 1 1 1 v.w.x.` ` ` ` ` ` c.y.z.A.B.C.D.E.F.G.H.H.H.H.H.H.I.J.K.a a a ( ( 0 N a L.",
"1 1 1 1 1 1 M.N.` ` ` ` O.` ` ` P.Q.T C.R.2.S.H.H.H.H.H.H.T.U.V.W.X.Y.N Z.( `.N . N ",
"1 1 1 1 1 1  +.+` ` ` O.++O.` ` @+@.T #+$+%+H.H.H.H.H.H.H.H.H.&+*+l X.X.N ( ( M + M ",
"1 1 1 1 1 1 =+-+` ` ` O.;+>+` ` ;.T T ;.,+'+H.H.H.H.H.H.H.H.H.)+!+l l ~+{+( ( M *.]+",
"0 0 0 0 0 L ^+.+` ` ` ` /+(+_+O.:+T @.@+,+<+H.H.H.H.H.H.H.H.H.[+}+M N |+1+{+( M = ]+",
"0 0 0 0 0 0 2+-+` ` ` ` ` ` ` 3++.4+5+,+6+H.H.H.H.H.H.H.H.H.H.7+8+0 a x 9+9+( `.= 0+",
"0 0 0 0 0 0 0 a+` ` ` ` ` ` b+c+d+e+f+g+H.H.h+H.H.H.H.H.H.H.i+i+j+k+x 9+l+l+( ( = m+",
"0 0 0 0 0 0 0 n+o+` ` R (+p+T q+r+s+t+u+H.H.H.H.H.H.H.H.H.H.i+i+3 v+v+v+l+w+k ( 1 ]+",
"0 0 0 0 0 0 L x+y+z+R A+B+T C+D+E+F+G+H.H.H.H.H.H+H.H.H.H.i+i+I+v+v+v+v+0 0 M ( = ]+",
"1 1 1 1 1 1 1 1 ^.J+-+A+@.K+L+M+N+O+P+H.H.H.H.Q+H.H.H.H.i+i+R+S+T+( ( ( v+1 1 ( = 1 ",
"= = = = = = = = = U+V+W+X+Y+Z+`+ @H.H.H.H.H.H.H.H.H.i+i+i+.@v++@( ( ( ( v+= ( ( *.= ",
"= = = = * = * * * @@#@$@%@&@H.*@=@H.H.H.H.H.-@;@i+i+i+i+>@v+,@( ( ( ( ( v+( ( * * * ",
"*.+ + + + + + + + '@)@!@~@H.{@H.H.H.]@H.H.H.^@^@i+i+/@(@_@( ( ( ( ( ( ( v+:@+ + + + ",
"+ . . * * * * * * . <@[@}@|@1@2@2@1@1@1@1@1@1@1@1@1@3@4@5@( ( ( ( ( ( ( v+. . . . . ",
"/.+ 6@= = = = = = + /./.]+7@8@i+i+9@9@9@9@v+v+v+v+i+i+0@( ( ( ( ( ( ( a@v+]+]+]+]+]+",
"]+. b@M 0 b@1 * = * . ]+]+]+]+i+i+9@9@9@9@v+v+v+v+i+i+i+i+i+i+i+i+i+i+i+v+]+]+]+]+]+",
". * b@c@c@0 d@0 e@f@g@0+0+0+0+i+i+h@h@v+v+h@h@h@h@v+v+i+i+i+i+i+i@j@j@j@v+= = 0+0+0+",
". . . * * b@k@l@0 + g@0+0+0+0+i+m@v+v+v+v+h@h@h@h@v+v+i@j@j@j@j@j@j@j@j@v+= = m+0+0+",
"+ . . ]+/.. M X.n@b@. ]+]+]+]+v+v+v+h@h@h@h@h@h@h@v+v+o@j@j@j@j@j@j@j@j@v+= = ]+]+]+",
"* * = 6@+ + 0 p@p@c@* ]+]+]+]+v+v+h@h@h@h@h@h@h@h@v+v+j@j@j@j@j@j@j@j@j@v+1 1 ]+]+]+",
"+ * b@b@b@b@N q@q@c@* . . r@s@( t@h@h@h@h@v+v+h@h@v+v+v+v+j@j@j@j@j@j@u@v+= = . . . ",
"*.+ = = 0 a k k a = + + + v@i+w@( ( h@h@h@v+v+h@h@v+v+v+v+j@j@j@j@j@j@v+v+= = + + + ",
"* * * b@c@c@N c@1 *.*.*.*.*.x@i+i+( ( v+v+y@z@z@z@z@z@v+v+v+v+v+v+v+v+*.*.*.*.*.*.*.",
"= = = = 0 0 0 0 = = = = = = = i+i+A@v+z@z@z@z@z@z@z@z@= = = = = = = = = = = = = = = ",
"= = = = = = = = = = = = = = = = B@C@v+h@h@h@h@h@h@v+v+*.= 1 = = = = *.= = = = = = = ",
"1 1 1 = = = 1 = = = = = = = = = = v+v+h@h@h@h@h@h@v+v+= = = = = = = = = = = = = = = ",
"1 1 1 = = 1 1 1 = = 1 1 1 = = 1 1 1 = = = = v+v+v+v+v+1 = = 1 1 1 = = 1 1 1 = = 1 1 ",
"= = = = = = = = = = = = = = = = = = 1 1 1 = v+v+v+v+v+= = = = = = = = = = = = = = = ",
"= = = = = = = = = = = = = = = = = = = = = = = = = = = = = = = = = = = = = = = = = = ",
"+ + + + *.+ *.+ *.*.*.*.*.*.*.*.*.*.*.*.*.*.*.*.*.*.*.*.*.*.*.*.*.*.*.*.*.*.*.*.*.*."};
