/* XPM */
static char * P_D_xpm[] = {
"42 42 356 2",
"  	c None",
". 	c #ABB2BA",
"+ 	c #9EA4AC",
"@ 	c #91979D",
"# 	c #64686D",
"$ 	c #6F6F6F",
"% 	c #9BA1A8",
"& 	c #ACB2BA",
"* 	c #AAB1B9",
"= 	c #A4AAB2",
"- 	c #878D93",
"; 	c #3A3D40",
"> 	c #8B8787",
", 	c #C2C2C2",
"' 	c #F5F5FC",
") 	c #DADADA",
"! 	c #F0EAE9",
"~ 	c #3E4145",
"{ 	c #ABB1B9",
"] 	c #83888E",
"^ 	c #53565A",
"/ 	c #808080",
"( 	c #FDFBFB",
"_ 	c #FEFEFE",
": 	c #FBFBFB",
"< 	c #FAFAFD",
"[ 	c #FEFEFF",
"} 	c #FFFFFF",
"| 	c #53575B",
"1 	c #AAB0B9",
"2 	c #90969D",
"3 	c #797E84",
"4 	c #505050",
"5 	c #E6E6E6",
"6 	c #F8F8F8",
"7 	c #E1E1E1",
"8 	c #D5D5D5",
"9 	c #9A9FA7",
"0 	c #A9B0B8",
"a 	c #9399A0",
"b 	c #2D2D2D",
"c 	c #A9A9A9",
"d 	c #898686",
"e 	c #EEF1F1",
"f 	c #3F3F3F",
"g 	c #383838",
"h 	c #1B1B1B",
"i 	c #92989F",
"j 	c #A8AFB7",
"k 	c #666A6F",
"l 	c #A5A5A5",
"m 	c #929090",
"n 	c #FBFAFA",
"o 	c #023535",
"p 	c #003E3E",
"q 	c #27413F",
"r 	c #698E8A",
"s 	c #6B8683",
"t 	c #65696E",
"u 	c #A6ADB6",
"v 	c #A7AEB6",
"w 	c #A9B0B9",
"x 	c #A3AAB2",
"y 	c #5B6064",
"z 	c #C4C4C4",
"A 	c #C5C4C4",
"B 	c #F9FFFE",
"C 	c #123332",
"D 	c #103D3C",
"E 	c #5AE8E4",
"F 	c #8DFDF8",
"G 	c #A8FDF6",
"H 	c #B2FAF3",
"I 	c #81A8A7",
"J 	c #A0A7AF",
"K 	c #A6ADB5",
"L 	c #A5ADB5",
"M 	c #D1D4D8",
"N 	c #A5A3A3",
"O 	c #1F3332",
"P 	c #33514E",
"Q 	c #73FFFA",
"R 	c #77FEF9",
"S 	c #82FEF8",
"T 	c #90FEF7",
"U 	c #B1FCF5",
"V 	c #B3FBF4",
"W 	c #94B5B6",
"X 	c #A6ACB5",
"Y 	c #A8AEB7",
"Z 	c #A9AFB8",
"` 	c #EDECEC",
" .	c #567C78",
"..	c #233634",
"+.	c #245957",
"@.	c #85FEF8",
"#.	c #7FFEF9",
"$.	c #80FEF8",
"%.	c #A4FDF6",
"&.	c #B4FCF5",
"*.	c #ACEBE6",
"=.	c #9DA3AB",
"-.	c #F5F5F5",
";.	c #B8B7B7",
">.	c #B2B2B2",
",.	c #B9B8B8",
"'.	c #36504D",
").	c #4C8381",
"!.	c #98FFFC",
"~.	c #86FEFA",
"{.	c #99FDF7",
"].	c #B0F7F0",
"^.	c #A5C4C6",
"/.	c #9DA0A4",
"(.	c #F7F7F7",
"_.	c #ECEBEB",
":.	c #7E7878",
"<.	c #CE9A9A",
"[.	c #8D8A8A",
"}.	c #989696",
"|.	c #283D3B",
"1.	c #44625F",
"2.	c #A9FEFA",
"3.	c #98FEFB",
"4.	c #BDFFFC",
"5.	c #9AFFFB",
"6.	c #B5FCF5",
"7.	c #B2F5EF",
"8.	c #A9B3BB",
"9.	c #C9CACB",
"0.	c #F3EEEE",
"a.	c #B19A9A",
"b.	c #A19292",
"c.	c #EE9797",
"d.	c #FC9595",
"e.	c #E8AFAF",
"f.	c #959393",
"g.	c #717574",
"h.	c #868484",
"i.	c #69706F",
"j.	c #666A69",
"k.	c #73A7A3",
"l.	c #8EFFFB",
"m.	c #BAFFFC",
"n.	c #E9FFFE",
"o.	c #DDFEFD",
"p.	c #C3FEFA",
"q.	c #B5FCF6",
"r.	c #B1F4EE",
"s.	c #ABC6C9",
"t.	c #B7B8B9",
"u.	c #959191",
"v.	c #A39090",
"w.	c #FF7D7D",
"x.	c #AF8F8B",
"y.	c #B76460",
"z.	c #3D4847",
"A.	c #4D6F6C",
"B.	c #92FDF8",
"C.	c #82FEF9",
"D.	c #B2FFFC",
"E.	c #EEFFFE",
"F.	c #D3FEFB",
"G.	c #B3F8F2",
"H.	c #AFDEDC",
"I.	c #A9AFB9",
"J.	c #A8AFB8",
"K.	c #A7AFB7",
"L.	c #A7ADB6",
"M.	c #897F7F",
"N.	c #A78D8D",
"O.	c #FE7D7D",
"P.	c #F57A7A",
"Q.	c #BC5E5A",
"R.	c #76A7A2",
"S.	c #8AFEF8",
"T.	c #D0FEFB",
"U.	c #B3FCF5",
"V.	c #B1F8F1",
"W.	c #B2EFEA",
"X.	c #424242",
"Y.	c #F08181",
"Z.	c #534B48",
"`.	c #638D89",
" +	c #9AFDF7",
".+	c #AEFCF5",
"++	c #ADFDF6",
"@+	c #B1F7F0",
"#+	c #B3F4EF",
"$+	c #A5ACB5",
"%+	c #A5ABB5",
"&+	c #676767",
"*+	c #F87B7B",
"=+	c #71403E",
"-+	c #213331",
";+	c #AAFEF7",
">+	c #9EFEF7",
",+	c #B2F9F2",
"'+	c #B1EAE6",
")+	c #A4ABB4",
"!+	c #A6ACB6",
"~+	c #696969",
"{+	c #FE7C7C",
"]+	c #C97673",
"^+	c #8FFDF8",
"/+	c #AFFDF6",
"(+	c #A7FDF6",
"_+	c #96FEF7",
":+	c #AFDFDD",
"<+	c #A7AEB7",
"[+	c #A5ACB4",
"}+	c #A3ABB3",
"|+	c #825252",
"1+	c #F84F4F",
"2+	c #A7534F",
"3+	c #8EFDF8",
"4+	c #7EFEF9",
"5+	c #9FFDF7",
"6+	c #ADCFD0",
"7+	c #A4ABB3",
"8+	c #777C82",
"9+	c #FF0000",
"0+	c #FF7070",
"a+	c #BB5E5B",
"b+	c #2F514E",
"c+	c #68FFFA",
"d+	c #71FFF9",
"e+	c #84FEF8",
"f+	c #96FDF7",
"g+	c #B0F6EF",
"h+	c #858B91",
"i+	c #F84E4C",
"j+	c #494B49",
"k+	c #11514F",
"l+	c #56FFFB",
"m+	c #7FFEF8",
"n+	c #8CFDF8",
"o+	c #ACE7E1",
"p+	c #A6D1D0",
"q+	c #D0D4D8",
"r+	c #000000",
"s+	c #575A60",
"t+	c #FF7C7C",
"u+	c #D29695",
"v+	c #322B2B",
"w+	c #002D2D",
"x+	c #5AE6E2",
"y+	c #81FDF8",
"z+	c #83FEF8",
"A+	c #9DFDF7",
"B+	c #B0EDE6",
"C+	c #95CBC7",
"D+	c #A0A6AF",
"E+	c #F2F2F7",
"F+	c #9BA1A9",
"G+	c #4F5257",
"H+	c #FF7B7B",
"I+	c #FE7171",
"J+	c #F83939",
"K+	c #622222",
"L+	c #333333",
"M+	c #376A68",
"N+	c #87FCF7",
"O+	c #98D1CC",
"P+	c #F2F2F6",
"Q+	c #320B03",
"R+	c #FE3838",
"S+	c #EF6F6F",
"T+	c #831616",
"U+	c #484442",
"V+	c #3B5957",
"W+	c #3A514E",
"X+	c #22302E",
"Y+	c #9FA6AD",
"Z+	c #BCBCBC",
"`+	c #5D3C2D",
" @	c #FF5959",
".@	c #FF5656",
"+@	c #FF7474",
"@@	c #FF6F6F",
"#@	c #FF7676",
"$@	c #8C2E14",
"%@	c #764D4F",
"&@	c #967A7C",
"*@	c #EEEDEE",
"=@	c #888E95",
"-@	c #6F3B3B",
";@	c #3C1D1D",
">@	c #995144",
",@	c #FE6564",
"'@	c #FC8C8A",
")@	c #FD8584",
"!@	c #D46E6E",
"~@	c #E48C8F",
"{@	c #CFA1A3",
"]@	c #E5E7E9",
"^@	c #ABB1BA",
"/@	c #F0EEEE",
"(@	c #9B8484",
"_@	c #3E1A17",
":@	c #6E220E",
"<@	c #AB4C48",
"[@	c #78403D",
"}@	c #986F71",
"|@	c #936160",
"1@	c #EBECED",
"2@	c #ADB3BB",
"3@	c #F5F5F9",
"4@	c #784040",
"5@	c #9A949A",
"6@	c #8F8084",
"7@	c #ACB3BB",
"8@	c #AAB1BA",
"9@	c #AAB0B8",
"0@	c #ADB4BC",
"a@	c #8A9096",
"b@	c #FFFBFB",
"c@	c #FFF6F6",
"d@	c #383878",
"e@	c #ACB3BA",
"f@	c #ABB2B9",
"g@	c #AAB1B8",
"h@	c #A9B0B7",
"i@	c #A9AFB7",
"j@	c #AEB4BC",
"k@	c #B0B0D0",
"l@	c #BAB3D0",
"m@	c #A8AFB6",
"n@	c #A8B0B7",
"o@	c #A8AEB6",
"p@	c #8A8F96",
"q@	c #A6AEB6",
"r@	c #898E95",
"s@	c #AEB1C5",
"t@	c #2B2B5F",
"u@	c #A7ADB5",
"v@	c #D48DA7",
"w@	c #FFBCBC",
"x@	c #58809A",
"y@	c #70A0C0",
"z@	c #BF2A2A",
"A@	c #7C8187",
"B@	c #9AA0A8",
"C@	c #33336E",
"D@	c #26282A",
"E@	c #A1A6AF",
"F@	c #A0A7AE",
"G@	c #A0A6AE",
"H@	c #9398A0",
"I@	c #7C8087",
"J@	c #323437",
"K@	c #70757A",
"L@	c #888D94",
"M@	c #4F5357",
"N@	c #9CA3AA",
"O@	c #7D8188",
". . . . . . . . . . . . . . . . . . + @ # $ $ # % + . . . . . . . . . . . & & & & & ",
"* * * * * * * * * * * * * * * = - - ; > , ' ' ) ! ~ - - = * * { * { * * { { { { { { ",
"* * * * * * * * * * * * * * ] ^ / ( _ _ : < [ _ } } } / | ] * * * * * * * * * * * * ",
"1 1 1 1 1 1 1 1 1 1 1 1 2 3 4 5 6 } } } } } } } } } } 7 8 4 3 9 1 1 1 1 1 1 1 1 1 1 ",
"0 0 0 0 0 0 0 0 0 0 0 a b c d } } } } } } } } } } } } e $ f g h i j j j 0 0 0 0 0 0 ",
"0 0 0 0 0 0 0 0 0 0 0 k l } m n } } } } } } } } } } } o p q r s t u v v j 0 0 0 0 0 ",
"0 0 w w 0 0 0 w w 0 x y } z A } } } } } } } } B } } C D E F G H I J K L v j 0 0 0 0 ",
"1 1 1 1 1 M } } } } } } } N N } } } } } } } } } } O P Q R S T U V W X u Y Z 1 w 0 w ",
"1 1 1 } } } } } } } } } ` m } } } } } } } } }  ...+.@.#.$.S S %.&.*.Y Y Z Z 1 1 1 1 ",
"1 1 } } M 1 1 1 1 =.-.} ;.>.,.A } } } } } } '.'.).!.~.S {.%.%.&.&.].^.1 Z Z 1 1 1 1 ",
"* } } * * * * * * /.(._.:.<.[.A }.A } } } |.1.2.3.4.5.2.6.&.&.&.&.&.7.8.Y Z 1 1 1 1 ",
"* } } * * w 0 0 0 9.0.a.b.c.d.e.f.g.h.i.j.'.k.l.m.n.o.p.q.&.&.&.&.&.r.s.Y Z 1 1 1 1 ",
"} } * 0 0 j j j j t.u.v.w.w.w.w.w.w.x.y.z.A.B.C.D.E.F.q.&.&.&.&.&.&.G.H.I.1 1 1 1 1 ",
"M } * J.j j Y K.L.M.N.O.P.w.w.w.w.w.w.Q.|.R.B.S S.T.&.&.&.U.&.&.&.&.V.W.1 1 1 1 1 1 ",
"} } Z Y L.Y L.L.u X.Y.w.w.w.w.w.w.w.w.w.Z.`. +S @..+&.&.U.++U.&.&.&.@+#+1 1 1 1 1 1 ",
"} } Z Y L.$+%+u u &+*+w.w.w.w.w.w.w.w.w.=+-+{.S S {.&.&.;+>+U.&.&.&.,+'+1 1 1 1 1 1 ",
"} } Z J.$+)+!+Y Z ~+{+w.w.w.w.w.w.w.w.w.]+-+.+@.S ^+U./+(+_+&.&.&.&.@+:+w 0 0 0 0 0 ",
"} } <+[+}+}+K j 0 |+1+w.w.w.w.w.w.w.w.w.w.2+-+3+4+#.5+&.&.&.&.&.&.&.,+6+0 0 0 0 0 0 ",
"} } j [+7+7+}+K j 8+9+9+w.w.w.w.w.w.w.0+w.w.a+b+c+d+e+f+&.&.&.&.&.&.g+0 0 0 0 0 0 0 ",
"0 } 0 v [+7+}+}+h+3 9+9+w.w.w.w.w.w.w.w.w.w.i+j+k+l+m+S n+(+U &.&.o+p+0 0 0 0 0 0 0 ",
"1 } q+Z 0 0 r+r+r+r+s+9+9+w.w.w.w.t+w.w.w.w.w.u+v+w+x+y+S z+A+U B+C+D+w 0 0 0 0 0 0 ",
"1 } } 1 1 r+} } } E+F+G+9+9+w.w.w.w.H+w.w.w.w.I+J+K+L+M+N+@.A+,+O+=.1 1 1 1 1 1 1 1 ",
"* * } } * r+} } } } P+r+Q+9+9+9+w.w.w.w.w.w.w.w.w.R+S+T+U+V+W+X+Y+* * * * * * * * * ",
"{ { { } } r+} } } } } Z+r+`+9+9+9+9+ @.@w.w.w.w.w.+@@@w.#@$@%@&@*@{ { { * { * * * * ",
". . . . =@r+} } } } } } } -@;@>@9+9+,@,@w.w.w.'@w.w.w.)@w.!@~@{@]@. . . . . . . . ^@",
"& & & & & r+} } } } } } } /@(@_@:@:@:@:@:@:@:@:@:@<@<@:@[@}@|@1@& { { { { { { & & . ",
"2@2@2@2@2@r+} } } } } } } } 3@9+9+r+r+r+r+4@4@4@4@9+9+5@6@2@7@7@. * * * * * * 8@. 7@",
"2@2@2@2@2@r+} } } } } } } } } 9+9+r+r+r+r+4@4@4@4@9+9+2@2@2@2@& { * { 1 9@0 Z 9@& 2@",
"0@0@0@0@a@r+9+9+9+9+9+b@c@} } r+r+d@d@d@d@r+r+d@d@9+9+0@0@0@0@e@f@g@0 h@0 i@i@9@{ & ",
"0@0@j@0@r+r+k@k@k@l@9+9+9+9+r+r+d@d@d@d@d@r+r+d@d@9+9+0@0@0@0@e@. 0 m@n@9@{ { & & & ",
"2@2@2@2@r+r+k@k@k@k@k@k@k@r+r+d@d@d@d@d@d@r+r+d@d@r+r+2@2@2@2@& 9@o@L.Z & 7@2@& & . ",
"2@2@2@2@p@r+k@k@k@k@k@k@r+r+d@d@d@d@d@d@d@r+r+d@d@r+r+2@2@2@2@{ i@q@q@0 . . 8@* { { ",
"& & & & r@r+s@k@k@k@k@k@r+} d@d@d@d@r+t@d@r+r+r+r+& & & & & & { i@u@u@Y 9@9@9@9@{ . ",
". . . . . r+r+k@k@k@k@v@9+} } d@r+r+d@d@d@r+r+r+r+. . . . . . . * j v v j 0 * * . ^@",
"^@^@^@^@^@^@^@r+r+r+r+r+9+9+w@} r+x@y@y@y@y@y@r+r+^@^@^@^@^@^@^@^@1 i@Y i@i@9@{ { { ",
"* * * * * * * r+r+r+r+r+r+9+z@r+y@y@y@y@y@y@y@r+r+* * * * * * * * * 0 0 0 0 * * * * ",
"* * * * * * * * * * * * 0 * A@r+r+d@d@d@d@d@d@r+r+B@B@B@A@* * * * * * * * * * * * * ",
"* * * * * * * * * * * * * A@r+r+r+C@d@d@d@d@C@r+r+r+r+r+r+A@* * * * * 1 * * * 1 1 1 ",
"1 1 * * 1 1 1 * * 1 1 1 * A@r+r+D@E@F@F@G@H@r+r+r+r+r+r+r+I@1 1 * * 1 1 1 * * 1 1 1 ",
"* * * * * * * * * * * * * * J@r+r+K@* * * j L@r+r+M@M@M@A@* * * * * * * * * * * * * ",
"* * * * * * * * * * * * * * * J@r+A@* * * * j N@* * * * * * * * * * * * * * * * * * ",
"^@^@^@^@^@^@^@^@^@^@^@^@^@^@^@^@O@^@^@^@^@^@^@^@^@^@^@^@^@^@^@^@^@^@. ^@. ^@. . . . "};
