/* XPM */
static char * P_D1_xpm[] = {
"42 42 344 2",
"  	c None",
". 	c #ABB2BA",
"+ 	c #9EA4AC",
"@ 	c #91979D",
"# 	c #64686D",
"$ 	c #6F6F6F",
"% 	c #9BA1A8",
"& 	c #ACB2BA",
"* 	c #AAB1B9",
"= 	c #A4AAB2",
"- 	c #878D93",
"; 	c #3A3D40",
"> 	c #8B8787",
", 	c #C2C2C2",
"' 	c #F5F5FC",
") 	c #DADADA",
"! 	c #F0EAE9",
"~ 	c #3E4145",
"{ 	c #ABB1B9",
"] 	c #83888E",
"^ 	c #53565A",
"/ 	c #808080",
"( 	c #FDFBFB",
"_ 	c #FEFEFE",
": 	c #FBFBFB",
"< 	c #FAFAFD",
"[ 	c #FEFEFF",
"} 	c #FFFFFF",
"| 	c #53575B",
"1 	c #AAB0B9",
"2 	c #90969D",
"3 	c #797E84",
"4 	c #505050",
"5 	c #E6E6E6",
"6 	c #F8F8F8",
"7 	c #E1E1E1",
"8 	c #D5D5D5",
"9 	c #9A9FA7",
"0 	c #A9B0B8",
"a 	c #9399A0",
"b 	c #2D2D2D",
"c 	c #A9A9A9",
"d 	c #898686",
"e 	c #EEF1F1",
"f 	c #3F3F3F",
"g 	c #383838",
"h 	c #1B1B1B",
"i 	c #92989F",
"j 	c #A8AFB7",
"k 	c #666A6F",
"l 	c #A5A5A5",
"m 	c #929090",
"n 	c #FBFAFA",
"o 	c #023535",
"p 	c #003E3E",
"q 	c #27413F",
"r 	c #698E8A",
"s 	c #6B8683",
"t 	c #65696E",
"u 	c #A6ADB6",
"v 	c #A7AEB6",
"w 	c #A9B0B9",
"x 	c #A3AAB2",
"y 	c #5B6064",
"z 	c #C4C4C4",
"A 	c #C5C4C4",
"B 	c #F9FFFE",
"C 	c #123332",
"D 	c #103D3C",
"E 	c #5AE8E4",
"F 	c #8DFDF8",
"G 	c #A8FDF6",
"H 	c #B2FAF3",
"I 	c #81A8A7",
"J 	c #A0A7AF",
"K 	c #A6ADB5",
"L 	c #A5ADB5",
"M 	c #A5A3A3",
"N 	c #1F3332",
"O 	c #33514E",
"P 	c #73FFFA",
"Q 	c #77FEF9",
"R 	c #82FEF8",
"S 	c #90FEF7",
"T 	c #B1FCF5",
"U 	c #B3FBF4",
"V 	c #94B5B6",
"W 	c #A6ACB5",
"X 	c #A8AEB7",
"Y 	c #A9AFB8",
"Z 	c #ABB1BA",
"` 	c #EDECEC",
" .	c #567C78",
"..	c #233634",
"+.	c #245957",
"@.	c #85FEF8",
"#.	c #7FFEF9",
"$.	c #80FEF8",
"%.	c #A4FDF6",
"&.	c #B4FCF5",
"*.	c #ACEBE6",
"=.	c #ACB3BB",
"-.	c #9DA3AB",
";.	c #F5F5F5",
">.	c #B8B7B7",
",.	c #B2B2B2",
"'.	c #B9B8B8",
").	c #36504D",
"!.	c #4C8381",
"~.	c #98FFFC",
"{.	c #86FEFA",
"].	c #99FDF7",
"^.	c #B0F7F0",
"/.	c #A5C4C6",
"(.	c #D1D4D8",
"_.	c #9DA0A4",
":.	c #F7F7F7",
"<.	c #ECEBEB",
"[.	c #7E7878",
"}.	c #CE9A9A",
"|.	c #8D8A8A",
"1.	c #989696",
"2.	c #283D3B",
"3.	c #44625F",
"4.	c #A9FEFA",
"5.	c #98FEFB",
"6.	c #BDFFFC",
"7.	c #9AFFFB",
"8.	c #B5FCF5",
"9.	c #B2F5EF",
"0.	c #A9B3BB",
"a.	c #C9CACB",
"b.	c #F3EEEE",
"c.	c #B19A9A",
"d.	c #A19292",
"e.	c #EE9797",
"f.	c #FC9595",
"g.	c #E8AFAF",
"h.	c #959393",
"i.	c #717574",
"j.	c #868484",
"k.	c #69706F",
"l.	c #666A69",
"m.	c #73A7A3",
"n.	c #8EFFFB",
"o.	c #BAFFFC",
"p.	c #E9FFFE",
"q.	c #DDFEFD",
"r.	c #C3FEFA",
"s.	c #B5FCF6",
"t.	c #B1F4EE",
"u.	c #ABC6C9",
"v.	c #A8AFB8",
"w.	c #B7B8B9",
"x.	c #959191",
"y.	c #A39090",
"z.	c #FF7D7D",
"A.	c #AF8F8B",
"B.	c #B76460",
"C.	c #3D4847",
"D.	c #4D6F6C",
"E.	c #92FDF8",
"F.	c #82FEF9",
"G.	c #B2FFFC",
"H.	c #EEFFFE",
"I.	c #D3FEFB",
"J.	c #B3F8F2",
"K.	c #AFDEDC",
"L.	c #A9AFB9",
"M.	c #A7AEB7",
"N.	c #D0D3D7",
"O.	c #A7AFB7",
"P.	c #A7ADB6",
"Q.	c #897F7F",
"R.	c #A78D8D",
"S.	c #FE7D7D",
"T.	c #F57A7A",
"U.	c #BC5E5A",
"V.	c #76A7A2",
"W.	c #8AFEF8",
"X.	c #D0FEFB",
"Y.	c #B3FCF5",
"Z.	c #B1F8F1",
"`.	c #B2EFEA",
" +	c #424242",
".+	c #F08181",
"++	c #534B48",
"@+	c #638D89",
"#+	c #9AFDF7",
"$+	c #AEFCF5",
"%+	c #ADFDF6",
"&+	c #B1F7F0",
"*+	c #B3F4EF",
"=+	c #ADB3BB",
"-+	c #A5ACB5",
";+	c #A5ABB5",
">+	c #676767",
",+	c #F87B7B",
"'+	c #71403E",
")+	c #213331",
"!+	c #AAFEF7",
"~+	c #9EFEF7",
"{+	c #B2F9F2",
"]+	c #B1EAE6",
"^+	c #A4ABB4",
"/+	c #A6ACB6",
"(+	c #696969",
"_+	c #FE7C7C",
":+	c #C97673",
"<+	c #8FFDF8",
"[+	c #AFFDF6",
"}+	c #A7FDF6",
"|+	c #96FEF7",
"1+	c #AFDFDD",
"2+	c #ADB4BC",
"3+	c #A3ABB3",
"4+	c #825252",
"5+	c #F84F4F",
"6+	c #A7534F",
"7+	c #8EFDF8",
"8+	c #7EFEF9",
"9+	c #9FFDF7",
"0+	c #ADCFD0",
"a+	c #AEB4BC",
"b+	c #A4ABB3",
"c+	c #868C92",
"d+	c #777C82",
"e+	c #FF0000",
"f+	c #FF7070",
"g+	c #BB5E5B",
"h+	c #2F514E",
"i+	c #68FFFA",
"j+	c #71FFF9",
"k+	c #84FEF8",
"l+	c #96FDF7",
"m+	c #B0F6EF",
"n+	c #A5ACB4",
"o+	c #000000",
"p+	c #F84E4C",
"q+	c #494B49",
"r+	c #11514F",
"s+	c #56FFFB",
"t+	c #7FFEF8",
"u+	c #8CFDF8",
"v+	c #ACE7E1",
"w+	c #A6D1D0",
"x+	c #575A60",
"y+	c #FF7C7C",
"z+	c #D29695",
"A+	c #322B2B",
"B+	c #002D2D",
"C+	c #5AE6E2",
"D+	c #81FDF8",
"E+	c #83FEF8",
"F+	c #9DFDF7",
"G+	c #B0EDE6",
"H+	c #95CBC7",
"I+	c #A0A6AF",
"J+	c #F2F2F7",
"K+	c #9BA1A9",
"L+	c #4F5257",
"M+	c #FF7B7B",
"N+	c #FE7171",
"O+	c #F83939",
"P+	c #622222",
"Q+	c #333333",
"R+	c #376A68",
"S+	c #87FCF7",
"T+	c #98D1CC",
"U+	c #F2F2F6",
"V+	c #320B03",
"W+	c #FE3838",
"X+	c #EF6F6F",
"Y+	c #831616",
"Z+	c #484442",
"`+	c #3B5957",
" @	c #3A514E",
".@	c #22302E",
"+@	c #9FA6AD",
"@@	c #BCBCBC",
"#@	c #5D3C2D",
"$@	c #FF5959",
"%@	c #FF5656",
"&@	c #FF7474",
"*@	c #FF6F6F",
"=@	c #FF7676",
"-@	c #8C2E14",
";@	c #764D4F",
">@	c #967A7C",
",@	c #EEEDEE",
"'@	c #888E95",
")@	c #6F3B3B",
"!@	c #3C1D1D",
"~@	c #995144",
"{@	c #FE6564",
"]@	c #FC8C8A",
"^@	c #FD8584",
"/@	c #D46E6E",
"(@	c #E48C8F",
"_@	c #CFA1A3",
":@	c #E5E7E9",
"<@	c #F0EEEE",
"[@	c #9B8484",
"}@	c #3E1A17",
"|@	c #6E220E",
"1@	c #AB4C48",
"2@	c #78403D",
"3@	c #986F71",
"4@	c #936160",
"5@	c #EBECED",
"6@	c #FFCDCD",
"7@	c #F5F5F9",
"8@	c #784040",
"9@	c #9A949A",
"0@	c #8F8084",
"a@	c #AAB1BA",
"b@	c #AAB0B8",
"c@	c #B0B0D0",
"d@	c #C3A0BD",
"e@	c #383878",
"f@	c #ACB3BA",
"g@	c #ABB2B9",
"h@	c #AAB1B8",
"i@	c #A9B0B7",
"j@	c #A9AFB7",
"k@	c #BC0000",
"l@	c #A8AFB6",
"m@	c #A8B0B7",
"n@	c #AEADCC",
"o@	c #A8AEB6",
"p@	c #A6AEB6",
"q@	c #AEB1C5",
"r@	c #F2F2F4",
"s@	c #F25357",
"t@	c #C0A1A9",
"u@	c #A7ADB5",
"v@	c #FF9B9B",
"w@	c #BFA1A9",
"x@	c #70A0C0",
"y@	c #58809A",
"z@	c #E86A70",
"A@	c #FFE8E8",
"B@	c #7A0000",
"C@	c #F15357",
". . . . . . . . . . . . . . . . . . + @ # $ $ # % + . . . . . . . . . . . & & & & & ",
"* * * * * * * * * * * * * * * = - - ; > , ' ' ) ! ~ - - = * * { * { * * { { { { { { ",
"* * * * * * * * * * * * * * ] ^ / ( _ _ : < [ _ } } } / | ] * * * * * * * * * * * * ",
"1 1 1 1 1 1 1 1 1 1 1 1 2 3 4 5 6 } } } } } } } } } } 7 8 4 3 9 1 1 1 1 1 1 1 1 1 1 ",
"0 0 0 0 0 0 0 0 0 0 0 a b c d } } } } } } } } } } } } e $ f g h i j j j 0 0 0 0 0 0 ",
"0 0 0 0 0 0 0 0 0 0 0 k l } m n } } } } } } } } } } } o p q r s t u v v j 0 0 0 0 0 ",
"0 0 w w 0 0 * w w 0 x y } z A } } } } } } } } B } } C D E F G H I J K L v j 0 0 0 0 ",
"1 1 1 1 1 * * } } } } } } M M } } } } } } } } } } N O P Q R S T U V W u X Y 1 w 0 w ",
"1 Z 1 0 1 1 1 } } } } } ` m } } } } } } } } }  ...+.@.#.$.R R %.&.*.X X Y Y 1 1 1 1 ",
"1 =.* 0 0 0 } 1 1 -.;.} >.,.'.A } } } } } } ).).!.~.{.R ].%.%.&.&.^./.1 Y Y 1 1 1 1 ",
"* * 0 j w } (.* * _.:.<.[.}.|.A 1.A } } } 2.3.4.5.6.7.4.8.&.&.&.&.&.9.0.X Y 1 1 1 1 ",
"0 0 j j * } 0 0 0 a.b.c.d.e.f.g.h.i.j.k.l.).m.n.o.p.q.r.s.&.&.&.&.&.t.u.X Y 1 1 1 1 ",
"v.j X 0 } } j j j w.x.y.z.z.z.z.z.z.A.B.C.D.E.F.G.H.I.s.&.&.&.&.&.&.J.K.L.1 1 1 1 1 ",
"X & X M.} N.X O.P.Q.R.S.T.z.z.z.z.z.z.U.2.V.E.R W.X.&.&.&.Y.&.&.&.&.Z.`.1 1 1 1 1 1 ",
"Y . Y } } X P.P.u  +.+z.z.z.z.z.z.z.z.z.++@+#+R @.$+&.&.Y.%+Y.&.&.&.&+*+1 1 1 1 1 1 ",
"=+Z Y } } -+;+u u >+,+z.z.z.z.z.z.z.z.z.'+)+].R R ].&.&.!+~+Y.&.&.&.{+]+1 1 1 1 1 1 ",
"=+* Y } -+^+/+X Y (+_+z.z.z.z.z.z.z.z.z.:+)+$+@.R <+Y.[+}+|+&.&.&.&.&+1+w 0 0 0 0 0 ",
"2+* M.} 3+3+K j 0 4+5+z.z.z.z.z.z.z.z.z.z.6+)+7+8+#.9+&.&.&.&.&.&.&.{+0+0 0 0 0 0 0 ",
"a+* } } b+b+3+K c+d+e+e+z.z.z.z.z.z.z.f+z.z.g+h+i+j+k+l+&.&.&.&.&.&.m+0 0 0 0 0 0 0 ",
"=+1 } v n+b+o+o+o+3 e+e+z.z.z.z.z.z.z.z.z.z.p+q+r+s+t+R u+}+T &.&.v+w+0 0 0 0 0 0 0 ",
"=+* } Y 0 0 o+o+o+o+x+e+e+z.z.z.z.y+z.z.z.z.z.z+A+B+C+D+R E+F+T G+H+I+w 0 0 0 0 0 0 ",
"1 * } 1 1 o+} } } J+K+L+e+e+z.z.z.z.M+z.z.z.z.N+O+P+Q+R+S+@.F+{+T+-.1 1 1 1 1 1 1 1 ",
"* Z } } * o+} } } } U+o+V+e+e+e+z.z.z.z.z.z.z.z.z.W+X+Y+Z+`+ @.@+@* * * * * * * * * ",
"{ { { } } o+} } } } } @@o+#@e+e+e+e+$@%@z.z.z.z.z.&@*@z.=@-@;@>@,@{ { { * { * * * * ",
". . . . '@o+} } } } } } } )@!@~@e+e+{@{@z.z.z.]@z.z.z.^@z./@(@_@:@. . . . . . . . Z ",
"& & & & & o+} } } } } } } <@[@}@|@|@|@|@|@|@|@|@|@1@1@|@2@3@4@5@& { { { { { { & & . ",
"=+=+=+=+=+o+6@} } } } } } } 7@e+e+o+o+o+o+8@8@8@8@e+e+9@0@=+=.=.. * * * * * * a@. =.",
"=+=+=+=+=+o+e+e+e+e+e+e+e+e+e+e+e+o+o+o+o+8@8@8@8@e+e+=+=+=+=+& { * { 1 b@0 Y b@& =+",
"2+2+2+* * o+c@c@c@d@e+e+e+e+e+o+o+e@e@e@e@o+o+e@e@e+e+2+2+2+2+f@g@h@0 i@0 j@j@b@{ & ",
"2+2+a+* * o+c@c@c@c@c@c@c@c@d@o+o+e@e@e@e@o+o+o+o+k@e+2+2+2+2+f@. 0 l@m@b@{ { & & & ",
"=+=+=+* * o+c@c@c@c@c@c@c@c@n@o+o+e@e@e@e@e@e@e@o+o+o+=+=+=+=+& b@o@P.Y & =.=+& & . ",
"=+=+=+1 1 o+c@c@c@c@c@c@c@c@c@o+o+e@e@e@e@e@e@e@e@o+o+=+=+=+=+{ j@p@p@0 . . a@* { { ",
"& & & * * o+q@c@c@c@c@c@c@o+o+o+o+e@e@o+o+e@e@e@e@r@} s@t@& & { j@u@u@X b@b@b@b@{ . ",
". . . * * o+o+c@c@c@c@c@c@o+o+o+o+e@e@o+o+e@e@e@} } v@e+w@. . . * j v v j 0 * * . Z ",
"Z Z Z Z Z Z Z o+o+o+o+o+o+o+o+x@x@x@x@x@y@o+o+} } e+e+z@Z Z Z Z Z 1 j@X j@j@b@{ { { ",
"* * * * * * * * * * * * * * * x@x@x@x@x@x@x@x@o+A@e+e+* * * * * * * 0 0 0 0 * * * * ",
"* * * * * * * Z * * * * 1 * Z o+o+e@e@e@e@e@e@o+B@C@* * * * * * * * * * * * * * * * ",
"* * * * * * * * * * * * * * * o+o+e@e@e@e@e@e@o+o+* * * * * * * * * * 1 * * * 1 1 1 ",
"1 1 * * 1 1 1 * * 1 1 1 * * 1 o+o+o+o+o+* * * * 1 1 1 * * 1 1 1 * * 1 1 1 * * 1 1 1 ",
"* * * * * * * * * * * * * * * o+o+o+o+o+* 1 1 1 * * * * * * * * * * * * * * * * * * ",
"* * * * * * * * * * * * * * * * * * * * * * * * * * * * * * * * * * * * * * * * * * ",
"Z Z Z Z Z Z Z Z Z Z Z Z Z Z Z Z Z Z Z Z Z Z Z Z Z Z Z Z Z Z Z Z Z Z . Z . Z . . . . "};
