/* XPM */
static char * P_S_xpm[] = {
"42 42 251 2",
"  	c None",
". 	c #ABB2BA",
"+ 	c #ACB2BA",
"@ 	c #AAB1B9",
"# 	c #ABB1B9",
"$ 	c #A9B0B8",
"% 	c #AAB0B9",
"& 	c #A9AFB8",
"* 	c #A8AFB8",
"= 	c #A8AEB7",
"- 	c #A7ADB7",
"; 	c #A8ADB5",
"> 	c #CDD0D4",
", 	c #CCCFD5",
"' 	c #AFB3B8",
") 	c #A9AFB7",
"! 	c #A8AFB7",
"~ 	c #A7AEB6",
"{ 	c #9AA0A6",
"] 	c #B5BAC0",
"^ 	c #DDDDDE",
"/ 	c #ECEBEA",
"( 	c #F1F1F1",
"_ 	c #FEFEFE",
": 	c #F3F3F3",
"< 	c #FFFEFE",
"[ 	c #ECEEEF",
"} 	c #F9F0EF",
"| 	c #D8DADB",
"1 	c #CACACA",
"2 	c #FCF8F7",
"3 	c #FDF9F9",
"4 	c #FAF3F3",
"5 	c #809D9D",
"6 	c #007B7B",
"7 	c #FEFCFC",
"8 	c #FCF3F3",
"9 	c #E6E6E6",
"0 	c #A9ABAD",
"a 	c #A6AEB6",
"b 	c #A6ADB6",
"c 	c #A9B0B9",
"d 	c #A3A8B0",
"e 	c #AAAAAA",
"f 	c #50AAAA",
"g 	c #00AAAA",
"h 	c #21E2E1",
"i 	c #2DFFFD",
"j 	c #949494",
"k 	c #A7AEB7",
"l 	c #A6ADB5",
"m 	c #A5ADB5",
"n 	c #A7ADB5",
"o 	c #9A9C9E",
"p 	c #00CBCB",
"q 	c #31F6F3",
"r 	c #38FFFC",
"s 	c #52FFFA",
"t 	c #60FFF9",
"u 	c #999B9D",
"v 	c #888888",
"w 	c #A6ACB5",
"x 	c #A7ADB6",
"y 	c #9BA0A8",
"z 	c #527A7A",
"A 	c #37DAD9",
"B 	c #2AECEA",
"C 	c #49FFFB",
"D 	c #6DFFF9",
"E 	c #74FFF8",
"F 	c #8FFFF8",
"G 	c #9EFEF7",
"H 	c #537B7B",
"I 	c #7C7F86",
"J 	c #549092",
"K 	c #21E2E0",
"L 	c #64FFF9",
"M 	c #86FFF8",
"N 	c #A4FEF7",
"O 	c #ABFEF7",
"P 	c #B0FDF6",
"Q 	c #B4FCF5",
"R 	c #77FFF8",
"S 	c #5DFFF9",
"T 	c #22E3E1",
"U 	c #008585",
"V 	c #00C9C9",
"W 	c #37FFFC",
"X 	c #66FFF8",
"Y 	c #97FFF8",
"Z 	c #AEFDF6",
"` 	c #B3FCF5",
" .	c #BAFDF9",
"..	c #B6FCF6",
"+.	c #9DFEF7",
"@.	c #91FFF8",
"#.	c #00CACA",
"$.	c #000000",
"%.	c #A7FEF7",
"&.	c #BBFDF9",
"*.	c #D5FFFD",
"=.	c #C5FFFC",
"-.	c #B2FCF5",
";.	c #A7FFF8",
">.	c #9BFFF8",
",.	c #B5FCF5",
"'.	c #BEFEF9",
").	c #D4FEFB",
"!.	c #DFFEFC",
"~.	c #DCFDFA",
"{.	c #61FFF9",
"].	c #A9AFB9",
"^.	c #A7AFB7",
"/.	c #B5FCF6",
"(.	c #C3FEFA",
"_.	c #D7FEFC",
":.	c #E0FFFC",
"<.	c #DDFEFB",
"[.	c #CBFFFC",
"}.	c #B7FDF7",
"|.	c #C1FEFA",
"1.	c #DBFFFD",
"2.	c #CCFFFC",
"3.	c #A5ACB5",
"4.	c #A5ABB5",
"5.	c #009A9A",
"6.	c #59FFF9",
"7.	c #92FFF8",
"8.	c #BDFEFA",
"9.	c #5AFFF9",
"0.	c #A4ABB4",
"a.	c #A6ACB6",
"b.	c #424242",
"c.	c #707070",
"d.	c #A6FFF8",
"e.	c #A5ACB4",
"f.	c #A3ABB3",
"g.	c #676767",
"h.	c #ADFDF6",
"i.	c #AFFDF6",
"j.	c #85FFF8",
"k.	c #A4ABB3",
"l.	c #696969",
"m.	c #F25858",
"n.	c #903939",
"o.	c #40FFFB",
"p.	c #6CFFF8",
"q.	c #81FFF8",
"r.	c #A9FEF7",
"s.	c #A0FFF8",
"t.	c #00CDCD",
"u.	c #F45252",
"v.	c #9E5D5D",
"w.	c #585858",
"x.	c #FD2B2B",
"y.	c #B27E7E",
"z.	c #00A1A1",
"A.	c #80FFF8",
"B.	c #84FFF8",
"C.	c #62FFF9",
"D.	c #00A3A3",
"E.	c #8E8E8E",
"F.	c #FD2D2D",
"G.	c #B74444",
"H.	c #F72D2D",
"I.	c #009999",
"J.	c #33FFFC",
"K.	c #48FFFA",
"L.	c #7FFFF8",
"M.	c #39FFFC",
"N.	c #FB1F1F",
"O.	c #F23939",
"P.	c #874B43",
"Q.	c #F93A37",
"R.	c #FB3938",
"S.	c #848484",
"T.	c #089696",
"U.	c #1DE6E5",
"V.	c #43FAF7",
"W.	c #65FFF9",
"X.	c #AC7474",
"Y.	c #FB3939",
"Z.	c #FB2C2A",
"`.	c #8F2F15",
" +	c #F45954",
".+	c #FE3131",
"++	c #BA7878",
"@+	c #42C1C1",
"#+	c #FD4342",
"$+	c #F9423F",
"%+	c #902F15",
"&+	c #782610",
"*+	c #F9413E",
"=+	c #FB5C5C",
"-+	c #EEB6B6",
";+	c #E2E2E2",
">+	c #B7B7B7",
",+	c #70AAAA",
"'+	c #FA6868",
")+	c #FE2C2C",
"!+	c #FA3D39",
"~+	c #792610",
"{+	c #631E0B",
"]+	c #FD3B38",
"^+	c #FE8D8D",
"/+	c #FBF8F8",
"(+	c #EBEBEB",
"_+	c #919191",
":+	c #D5D5D5",
"<+	c #ACACAC",
"[+	c #D1D1D1",
"}+	c #C2C2C2",
"|+	c #FBFBFB",
"1+	c #FF4242",
"2+	c #FD312E",
"3+	c #ABB1BA",
"4+	c #ADB4BC",
"5+	c #23234F",
"6+	c #5F1C0A",
"7+	c #F84E4A",
"8+	c #FDDCDB",
"9+	c #FFFFFF",
"0+	c #F8F8F8",
"a+	c #F4F4F4",
"b+	c #FCF4F3",
"c+	c #E68B84",
"d+	c #ADB3BB",
"e+	c #AEB4BC",
"f+	c #383878",
"g+	c #262655",
"h+	c #D29089",
"i+	c #FEFAFA",
"j+	c #FEF8F8",
"k+	c #AAB1BA",
"l+	c #ACB3BB",
"m+	c #373776",
"n+	c #252555",
"o+	c #561908",
"p+	c #6E220E",
"q+	c #AAB0B8",
"r+	c #B0B0D0",
"s+	c #2B2B5F",
"t+	c #2A2A5D",
"u+	c #FF0000",
"v+	c #E8E8F8",
"w+	c #70A0C0",
"x+	c #5F84A9",
"y+	c #D2D2DA",
"z+	c #FFD4D4",
"A+	c #FFC9C9",
"B+	c #FFCDCD",
". . . . . . . . . . . . . . . . . . . . . . . . . . . . . . . . . . . . . + + + + + ",
"@ @ @ @ @ @ @ @ @ @ @ @ @ @ @ @ @ @ @ @ @ @ @ @ @ @ @ @ # @ @ # @ # @ @ # # # # # # ",
"@ @ @ @ @ @ @ @ @ @ @ @ @ @ @ $ $ $ $ $ $ @ @ @ @ @ @ @ @ @ @ @ @ @ @ @ @ @ @ @ @ @ ",
"% % % % % % % % % % % % % % & * = = - ; > , ' ) % & % % % % % % % % % % % % % % % % ",
"$ $ $ $ $ $ $ $ $ $ $ $ $ ! ~ { ] ^ / ( _ _ : < [ } $ $ $ $ ! ! ! ! ! ! $ $ $ $ $ $ ",
"$ $ $ $ $ $ $ $ $ $ $ $ $ ! | 1 2 3 4 5 6 6 5 7 < 8 1 9 0 ! a ~ ~ b ~ ~ ! $ $ $ $ $ ",
"$ $ c c $ $ $ c c $ $ $ d e e f g g g h i i h g g g f e e j ~ ~ k l l m ~ ! $ $ $ $ ",
"% % % % % % % % % % n o 5 p p q r r r s t t s r r r q p p 5 u v w x w b = & % c $ c ",
"% % % % % % % % % y z A B C C D E E E F G G F E E E D C C B A H I = = = & & % % % % ",
"% % % % % % % % % J K s L M M N O O O P Q Q P O O O N M R S s T U & % % & & % % % % ",
"@ @ @ @ @ @ @ @ @ V W X Y Z Z ` Q Q Q Q Q Q Q Q  ...` Z +.@.X r #.& & = = & % % % % ",
"@ @ @ @ @ c $ $ $.V W X %.Q Q Q Q Q Q Q Q Q Q &.*.=.Q Q -.;.X r #.$.$ ! = & % % % % ",
"@ @ @ $ $ ! ! ! g W t >.Q Q Q Q Q Q Q Q Q ,.'.).!.~.=...Q Q >.{.W g ! $ ].% % % % % ",
"@ % @ * ! ! = ^.g W t >.Q Q Q Q Q Q Q Q Q /.(._.:.<.[.}.Q Q >.{.W g & & % % % % % % ",
"% % & = x = x $.g W t >.Q Q Q Q Q Q Q Q Q Q /.|.1.2...Q Q Q >.{.W g $.% % % % % % % ",
"% % & = x 3.4.$.5.q 6.7.-.Q Q Q Q Q Q Q Q Q Q Q 8...Q Q Q -.7.9.q 5.$.% % % % % % % ",
"c % & * 3.0.a.b.c.V W X %.Q Q Q Q Q Q Q Q Q Q Q Q Q Q Q P d.X r #.c.b.$ c $ $ $ $ $ ",
"$ $ k e.f.f.l g.e V W X M h.Q Q Q Q Q Q Q Q Q Q Q Q Q i.d.j.X r #.e g.$ $ $ $ $ $ $ ",
"$ $ ! e.k.k.l l.m.n.p o.p.q.r.` Q Q Q Q Q Q Q Q Q Q Z s.q.p.o.t.b.u.v.$ $ $ $ $ $ $ ",
"$ $ $ ~ e.k.e.w.x.y.z.q t t A.r.Z Z Z -.Q Q -.Z Z Z s.B.p.C.q D.E.F.G.$ $ $ $ $ $ $ ",
"% c c & = x b $.H.H.$.I.J.K.s L.M M M +.O O +.M M M L.6.6.M.I.$.N.O.$.c $ $ $ $ $ $ ",
"% % % % % & = = P.Q.R.S.T.U.U.V.C C C W.E E W.C C C V.U.U.T.X.Y.Z.P.% % % % % % % % ",
"@ @ @ @ @ @ @ @ $.`. +.+++E.E.@+p p p B r r B p p p @+E.E.E.#+$+%+$.@ @ @ @ @ @ @ @ ",
"# # # # # # # # # $.&+*+=+-+;+>+e e e ,+g g ,+e e e >+;+'+)+!+~+$.# # # @ # @ @ @ @ ",
". . . . . . . . . $.$.{+]+^+/+(+_+:+<+[+}+}+[+9 9 9 (+|+1+2+{+$.$.. . . . . . . . 3+",
"+ + + + + + 4+4++ $.$.5+6+7+8+9+9+9+9+0+a+a+0+9+9+9+9+b+c+6+5+$.$.# # # # # # + + . ",
"d+d+d+d+d+d+d+4+e+f+f+f+g+{+h+7 7 7 7 7 7 7 7 7 i+i+j+h+{+g+f+f+f+$.@ @ @ @ @ k+. l+",
"d+d+d+d+d+d+d+d+d+f+f+f+m+n+o+p+p+p+p+p+p+p+p+p+p+p+p+o+n+m+f+f+f+$.@ @ q+$ & q++ d+",
"4+4+4+4+4+4+4+d+d+f+f+f+f+f+f+9+9+9+9+r+r+r+r+9+9+9+9+f+s+$.f+f+f+f+. . $ ) ) q+# + ",
"4+4+e+4+4+4+4++ + 9+f+f+f+f+f+9+9+9+9+r+r+r+r+9+9+9+9+f+t+$.f+f+f+f++ + q+# # + + + ",
"d+d+d+d+d+d+d+. . u+u+$.$.$.$.9+9+u+u+v+v+v+v+u+u+9+9+$.$.$.f+f+f+f+k+. + l+d++ + . ",
"d+d+d+d+d+d+d++ q+3+3+$.$.$.$.9+9+u+u+v+v+v+v+u+u+9+9+$.$.f+f+f+f+9+a @ . . k+@ # # ",
"+ + + + + + + # ) l n f+f+w+w+f+f+$.$.$.$.$.$.$.$.f+f+w+x+9+y+y+9+9+n = q+q+q+q+# . ",
". . . . . . . . c ~ l f+f+w+w+f+f+$.$.$.$.$.$.$.$.f+f+w+w+z+A+B+u+u+~ ~ ! $ @ @ . 3+",
"3+3+3+3+3+3+3+3+% & - $.$.$.$.w+w+w+w+$.$.$.$.w+w+w+w+$.$.u+u+u+u+u+) = ) ) q+# # # ",
"@ @ @ @ @ @ @ @ @ @ $ $.$.$.$.w+w+w+w+$.$.$.$.w+w+w+w+$.$.$.$.@ @ @ $ $ $ $ @ @ @ @ ",
"@ @ @ @ @ @ @ @ @ @ @ $.$.f+f+f+f+$.$.@ @ @ @ $.$.f+f+f+f+$.$.@ @ @ @ @ @ @ @ @ @ @ ",
"@ @ @ @ @ @ @ @ @ @ @ $.$.f+f+f+f+$.$.@ @ @ @ @ @ @ @ @ @ @ @ @ @ @ @ % @ @ @ % % % ",
"% % @ @ % % % @ @ % % % @ $.$.$.$.@ @ % % % @ @ % @ @ @ % % % % @ @ % % % @ @ % % % ",
"@ @ @ @ @ @ @ @ @ @ @ @ @ $.$.$.$.@ @ @ @ @ @ @ % % @ @ % % % @ @ @ @ @ @ @ @ @ @ @ ",
"@ @ @ @ @ @ @ @ @ @ @ @ @ @ @ @ @ @ @ @ @ @ @ @ @ @ @ @ @ @ @ @ @ @ @ @ @ @ @ @ @ @ ",
"3+3+3+3+3+3+3+3+3+3+3+3+3+3+3+3+3+3+3+3+3+3+3+3+3+3+3+3+3+3+3+3+3+3+. 3+. 3+. . . . "};
