/* XPM */
static char * P_S1_xpm[] = {
"42 42 251 2",
"  	c None",
". 	c #ACB2BA",
"+ 	c #ABB2BA",
"@ 	c #ABB1B9",
"# 	c #AAB1B9",
"$ 	c #A9B0B8",
"% 	c #AAB0B9",
"& 	c #A9AFB8",
"* 	c #A9AFB7",
"= 	c #AFB3B8",
"- 	c #CCCFD5",
"; 	c #CDD0D4",
"> 	c #A8ADB5",
", 	c #A7ADB7",
"' 	c #A8AEB7",
") 	c #A8AFB8",
"! 	c #A8AFB7",
"~ 	c #F9F0EF",
"{ 	c #ECEEEF",
"] 	c #FFFEFE",
"^ 	c #F3F3F3",
"/ 	c #FEFEFE",
"( 	c #F1F1F1",
"_ 	c #ECEBEA",
": 	c #DDDDDE",
"< 	c #B5BAC0",
"[ 	c #9AA0A6",
"} 	c #A7AEB6",
"| 	c #A6ADB6",
"1 	c #A6AEB6",
"2 	c #A9ABAD",
"3 	c #E6E6E6",
"4 	c #CACACA",
"5 	c #FCF3F3",
"6 	c #FEFCFC",
"7 	c #809D9D",
"8 	c #007B7B",
"9 	c #FAF3F3",
"0 	c #FDF9F9",
"a 	c #FCF8F7",
"b 	c #D8DADB",
"c 	c #A5ADB5",
"d 	c #A6ADB5",
"e 	c #A7AEB7",
"f 	c #949494",
"g 	c #AAAAAA",
"h 	c #50AAAA",
"i 	c #00AAAA",
"j 	c #21E2E1",
"k 	c #2DFFFD",
"l 	c #A3A8B0",
"m 	c #A9B0B9",
"n 	c #A6ACB5",
"o 	c #A7ADB6",
"p 	c #888888",
"q 	c #999B9D",
"r 	c #00CBCB",
"s 	c #31F6F3",
"t 	c #38FFFC",
"u 	c #52FFFA",
"v 	c #60FFF9",
"w 	c #9A9C9E",
"x 	c #A7ADB5",
"y 	c #7C7F86",
"z 	c #537B7B",
"A 	c #37DAD9",
"B 	c #2AECEA",
"C 	c #49FFFB",
"D 	c #6DFFF9",
"E 	c #74FFF8",
"F 	c #8FFFF8",
"G 	c #9EFEF7",
"H 	c #527A7A",
"I 	c #9BA0A8",
"J 	c #008585",
"K 	c #22E3E1",
"L 	c #5DFFF9",
"M 	c #77FFF8",
"N 	c #86FFF8",
"O 	c #A4FEF7",
"P 	c #ABFEF7",
"Q 	c #B0FDF6",
"R 	c #B4FCF5",
"S 	c #64FFF9",
"T 	c #21E2E0",
"U 	c #549092",
"V 	c #00CACA",
"W 	c #66FFF8",
"X 	c #91FFF8",
"Y 	c #9DFEF7",
"Z 	c #AEFDF6",
"` 	c #B3FCF5",
" .	c #B6FCF6",
"..	c #BAFDF9",
"+.	c #97FFF8",
"@.	c #37FFFC",
"#.	c #00C9C9",
"$.	c #000000",
"%.	c #A7FFF8",
"&.	c #B2FCF5",
"*.	c #C5FFFC",
"=.	c #D5FFFD",
"-.	c #BBFDF9",
";.	c #A7FEF7",
">.	c #A9AFB9",
",.	c #61FFF9",
"'.	c #9BFFF8",
").	c #DCFDFA",
"!.	c #DFFEFC",
"~.	c #D4FEFB",
"{.	c #BEFEF9",
"].	c #B5FCF5",
"^.	c #B7FDF7",
"/.	c #CBFFFC",
"(.	c #DDFEFB",
"_.	c #E0FFFC",
":.	c #D7FEFC",
"<.	c #C3FEFA",
"[.	c #B5FCF6",
"}.	c #A7AFB7",
"|.	c #CCFFFC",
"1.	c #DBFFFD",
"2.	c #C1FEFA",
"3.	c #009A9A",
"4.	c #5AFFF9",
"5.	c #92FFF8",
"6.	c #BDFEFA",
"7.	c #59FFF9",
"8.	c #A5ABB5",
"9.	c #A5ACB5",
"0.	c #424242",
"a.	c #707070",
"b.	c #A6FFF8",
"c.	c #A6ACB6",
"d.	c #A4ABB4",
"e.	c #676767",
"f.	c #85FFF8",
"g.	c #AFFDF6",
"h.	c #ADFDF6",
"i.	c #A3ABB3",
"j.	c #A5ACB4",
"k.	c #9E5D5D",
"l.	c #F45252",
"m.	c #00CDCD",
"n.	c #40FFFB",
"o.	c #6CFFF8",
"p.	c #81FFF8",
"q.	c #A0FFF8",
"r.	c #A9FEF7",
"s.	c #903939",
"t.	c #F25858",
"u.	c #696969",
"v.	c #A4ABB3",
"w.	c #B74444",
"x.	c #FD2D2D",
"y.	c #8E8E8E",
"z.	c #00A3A3",
"A.	c #62FFF9",
"B.	c #84FFF8",
"C.	c #80FFF8",
"D.	c #00A1A1",
"E.	c #B27E7E",
"F.	c #FD2B2B",
"G.	c #585858",
"H.	c #F23939",
"I.	c #FB1F1F",
"J.	c #009999",
"K.	c #39FFFC",
"L.	c #7FFFF8",
"M.	c #48FFFA",
"N.	c #33FFFC",
"O.	c #F72D2D",
"P.	c #874B43",
"Q.	c #FB2C2A",
"R.	c #FB3939",
"S.	c #AC7474",
"T.	c #089696",
"U.	c #1DE6E5",
"V.	c #43FAF7",
"W.	c #65FFF9",
"X.	c #848484",
"Y.	c #FB3938",
"Z.	c #F93A37",
"`.	c #902F15",
" +	c #F9423F",
".+	c #FD4342",
"++	c #42C1C1",
"@+	c #BA7878",
"#+	c #FE3131",
"$+	c #F45954",
"%+	c #8F2F15",
"&+	c #792610",
"*+	c #FA3D39",
"=+	c #FE2C2C",
"-+	c #FA6868",
";+	c #E2E2E2",
">+	c #B7B7B7",
",+	c #70AAAA",
"'+	c #EEB6B6",
")+	c #FB5C5C",
"!+	c #F9413E",
"~+	c #782610",
"{+	c #ABB1BA",
"]+	c #631E0B",
"^+	c #FD312E",
"/+	c #FF4242",
"(+	c #FBFBFB",
"_+	c #EBEBEB",
":+	c #D1D1D1",
"<+	c #C2C2C2",
"[+	c #ACACAC",
"}+	c #D5D5D5",
"|+	c #919191",
"1+	c #FBF8F8",
"2+	c #FE8D8D",
"3+	c #FD3B38",
"4+	c #23234F",
"5+	c #5F1C0A",
"6+	c #E68B84",
"7+	c #FCF4F3",
"8+	c #FFFFFF",
"9+	c #F8F8F8",
"0+	c #F4F4F4",
"a+	c #FDDCDB",
"b+	c #F84E4A",
"c+	c #ADB4BC",
"d+	c #ACB3BB",
"e+	c #AAB1BA",
"f+	c #383878",
"g+	c #262655",
"h+	c #D29089",
"i+	c #FEF8F8",
"j+	c #FEFAFA",
"k+	c #AEB4BC",
"l+	c #ADB3BB",
"m+	c #AAB0B8",
"n+	c #373776",
"o+	c #252555",
"p+	c #561908",
"q+	c #6E220E",
"r+	c #2B2B5F",
"s+	c #B0B0D0",
"t+	c #2A2A5D",
"u+	c #FF0000",
"v+	c #E8E8F8",
"w+	c #D2D2DA",
"x+	c #5F84A9",
"y+	c #70A0C0",
"z+	c #FFCDCD",
"A+	c #FFC9C9",
"B+	c #FFD4D4",
". . . . . + + + + + + + + + + + + + + + + + + + + + + + + + + + + + + + + + + + + + ",
"@ @ @ @ @ @ # # @ # @ # # @ # # # # # # # # # # # # # # # # # # # # # # # # # # # # ",
"# # # # # # # # # # # # # # # # # # # # # $ $ $ $ $ $ # # # # # # # # # # # # # # # ",
"% % % % % % % % % % % % % % % % & % * = - ; > , ' ' ) & % % % % % % % % % % % % % % ",
"$ $ $ $ $ $ ! ! ! ! ! ! $ $ $ $ ~ { ] ^ / / ( _ : < [ } ! $ $ $ $ $ $ $ $ $ $ $ $ $ ",
"$ $ $ $ $ ! } } | } } 1 ! 2 3 4 5 ] 6 7 8 8 7 9 0 a 4 b ! $ $ $ $ $ $ $ $ $ $ $ $ $ ",
"$ $ $ $ ! } c d d e } } f g g h i i i j k k j i i i h g g l $ $ $ m m $ $ $ m m $ $ ",
"m $ m % & ' | n o n p q 7 r r s t t t u v v u t t t s r r 7 w x % % % % % % % % % % ",
"% % % % & & ' ' ' y z A B C C D E E E F G G F E E E D C C B A H I % % % % % % % % % ",
"% % % % & & % % & J K u L M N O P P P Q R R Q P P P O N N S u T U % % % % % % % % % ",
"% % % % & ' ' & & V t W X Y Z `  ...R R R R R R R R ` Z Z +.W @.#.# # # # # # # # # ",
"% % % % & ' ! $ $.V t W %.&.R R *.=.-.R R R R R R R R R R ;.W @.#.$.$ $ m # # # # # ",
"% % % % % >.$ ! i @.,.'.R R  .*.).!.~.{.].R R R R R R R R R '.v @.i ! ! ! $ $ # # # ",
"% % % % % % & & i @.,.'.R R ^./.(._.:.<.[.R R R R R R R R R '.v @.i }.' ! ! ) # % # ",
"% % % % % % % $.i @.,.'.R R R  .|.1.2.[.R R R R R R R R R R '.v @.i $.o ' o ' & % % ",
"% % % % % % % $.3.s 4.5.&.R R R  .6.R R R R R R R R R R R &.5.7.s 3.$.8.9.o ' & % % ",
"$ $ $ $ $ m $ 0.a.V t W b.Q R R R R R R R R R R R R R R R ;.W @.#.a.0.c.d.9.) & % m ",
"$ $ $ $ $ $ $ e.g V t W f.b.g.R R R R R R R R R R R R R h.N W @.#.g e.d i.i.j.e $ $ ",
"$ $ $ $ $ $ $ k.l.0.m.n.o.p.q.Z R R R R R R R R R R ` r.p.o.n.r s.t.u.d v.v.j.! $ $ ",
"$ $ $ $ $ $ $ w.x.y.z.s A.o.B.q.Z Z Z &.R R &.Z Z Z r.C.v v s D.E.F.G.j.v.j.} $ $ $ ",
"$ $ $ $ $ $ m $.H.I.$.J.K.7.7.L.N N N Y P P Y N N N L.u M.N.J.$.O.O.$.| o ' & m m % ",
"% % % % % % % % P.Q.R.S.T.U.U.V.C C C W.E E W.C C C V.U.U.T.X.Y.Z.P.' ' & % % % % % ",
"# # # # # # # # $.`. +.+y.y.y.++r r r B t t B r r r ++y.y.@+#+$+%+$.# # # # # # # # ",
"# # # # @ # @ @ @ $.&+*+=+-+;+>+g g g ,+i i ,+g g g >+;+'+)+!+~+$.@ @ @ @ @ @ @ @ @ ",
"{++ + + + + + + + $.$.]+^+/+(+_+3 3 3 :+<+<+:+[+}+|+_+1+2+3+]+$.$.+ + + + + + + + + ",
"+ . . @ @ @ @ @ @ $.$.4+5+6+7+8+8+8+8+9+0+0+9+8+8+8+8+a+b+5+4+$.$.. c+c+. . . . . . ",
"d++ e+# # # # # $.f+f+f+g+]+h+i+j+j+6 6 6 6 6 6 6 6 6 h+]+g+f+f+f+k+c+l+l+l+l+l+l+l+",
"l+. m+& $ m+# # $.f+f+f+n+o+p+q+q+q+q+q+q+q+q+q+q+q+q+p+o+n+f+f+f+l+l+l+l+l+l+l+l+l+",
". @ m+* * $ + + f+f+f+f+$.r+f+8+8+8+8+s+s+s+s+8+8+8+8+f+f+f+f+f+f+l+l+c+c+c+c+c+c+c+",
". . . @ @ m+. . f+f+f+f+$.t+f+8+8+8+8+s+s+s+s+8+8+8+8+f+f+f+f+f+8+. . c+c+c+c+k+c+c+",
"+ . . l+d+. + e+f+f+f+f+$.$.$.8+8+u+u+v+v+v+v+u+u+8+8+$.$.$.$.u+u++ + l+l+l+l+l+l+l+",
"@ @ # e++ + # 1 8+f+f+f+f+$.$.8+8+u+u+v+v+v+v+u+u+8+8+$.$.$.$.{+{+m+. l+l+l+l+l+l+l+",
"+ @ m+m+m+m+' x 8+8+w+w+8+x+y+f+f+$.$.$.$.$.$.$.$.f+f+y+y+f+f+x d * @ . . . . . . . ",
"{++ # # $ ! } } u+u+z+A+B+y+y+f+f+$.$.$.$.$.$.$.$.f+f+y+y+f+f+d } m + + + + + + + + ",
"@ @ @ m+* * ' * u+u+u+u+u+$.$.y+y+y+y+$.$.$.$.y+y+y+y+$.$.$.$., & % {+{+{+{+{+{+{+{+",
"# # # # $ $ $ $ # # # $.$.$.$.y+y+y+y+$.$.$.$.y+y+y+y+$.$.$.$.$ # # # # # # # # # # ",
"# # # # # # # # # # # $.$.f+f+f+f+$.$.# # # # $.$.f+f+f+f+$.$.# # # # # # # # # # # ",
"% % % # # # % # # # # # # # # # # # # # # # # $.$.f+f+f+f+$.$.# # # # # # # # # # # ",
"% % % # # % % % # # % % % % # # # % # # % % % # # $.$.$.$.# % % % # # % % % # # % % ",
"# # # # # # # # # # # % % % # # % % # # # # # # # $.$.$.$.# # # # # # # # # # # # # ",
"# # # # # # # # # # # # # # # # # # # # # # # # # # # # # # # # # # # # # # # # # # ",
"+ + + + {++ {++ {+{+{+{+{+{+{+{+{+{+{+{+{+{+{+{+{+{+{+{+{+{+{+{+{+{+{+{+{+{+{+{+{+{+"};
