/* XPM */
static char * P_W_xpm[] = {
"42 42 325 2",
"  	c None",
". 	c #ACB2BA",
"+ 	c #ABB2BA",
"@ 	c #A6ADB4",
"# 	c #A7AEB6",
"$ 	c #999EA4",
"% 	c #7B7B7E",
"& 	c #8F8C90",
"* 	c #92969A",
"= 	c #999CA6",
"- 	c #B0B3B6",
"; 	c #B0AFB2",
"> 	c #CDCECF",
", 	c #92989F",
"' 	c #9EA4AC",
") 	c #ABB1B9",
"! 	c #AAB1B9",
"~ 	c #959AA1",
"{ 	c #C2C2C2",
"] 	c #F7EBEA",
"^ 	c #F9EDEB",
"/ 	c #FEFBFB",
"( 	c #FDFDFD",
"_ 	c #FAFAFD",
": 	c #FDFDFE",
"< 	c #FAFAFA",
"[ 	c #FAF8F7",
"} 	c #F2ECEB",
"| 	c #FDF9F9",
"1 	c #B0B0B0",
"2 	c #858B92",
"3 	c #A9B0B8",
"4 	c #A0A7AE",
"5 	c #A9A9A9",
"6 	c #E6E6E6",
"7 	c #E7E7E7",
"8 	c #FEFDFD",
"9 	c #FFFEFD",
"0 	c #FDFAFA",
"a 	c #F3F4F4",
"b 	c #EDF1F1",
"c 	c #DFE6E6",
"d 	c #E7EBEB",
"e 	c #F5EBE9",
"f 	c #FCF7F6",
"g 	c #FEFCFC",
"h 	c #F6F6F6",
"i 	c #E8E8E8",
"j 	c #959BA2",
"k 	c #AAB0B9",
"l 	c #808080",
"m 	c #A0A0A0",
"n 	c #C6C6C6",
"o 	c #DBDBDB",
"p 	c #FDFEFE",
"q 	c #DEE3E3",
"r 	c #DBE0E0",
"s 	c #999D9D",
"t 	c #818585",
"u 	c #848888",
"v 	c #848686",
"w 	c #848484",
"x 	c #B7BBBB",
"y 	c #F9FBFB",
"z 	c #F9FAFA",
"A 	c #F3F3F3",
"B 	c #E0E0E0",
"C 	c #9C9C9C",
"D 	c #8C8E91",
"E 	c #A7ADB6",
"F 	c #A8AFB7",
"G 	c #888888",
"H 	c #AAAAAA",
"I 	c #EAEEEE",
"J 	c #FEFFFF",
"K 	c #FCFFFF",
"L 	c #FDFFFF",
"M 	c #8A8888",
"N 	c #FAFFFF",
"O 	c #E6E9E9",
"P 	c #E7E9E9",
"Q 	c #C0C1C1",
"R 	c #FBFFFF",
"S 	c #FAFDFD",
"T 	c #FBFDFD",
"U 	c #F1F3F3",
"V 	c #A4A4A4",
"W 	c #9A9EA3",
"X 	c #A6ADB6",
"Y 	c #858B91",
"Z 	c #ABB8B8",
"` 	c #F3FBFB",
" .	c #FBFEFE",
"..	c #FFFFFF",
"+.	c #E9E9E9",
"@.	c #8B8888",
"#.	c #F7FDFD",
"$.	c #A0ACB1",
"%.	c #8E949A",
"&.	c #A5ADB5",
"*.	c #A6ADB5",
"=.	c #9DA4AC",
"-.	c #D6E0E0",
";.	c #F1FCFB",
">.	c #EAE9E9",
",.	c #C2C1C1",
"'.	c #C1C1C1",
").	c #F1F4F4",
"!.	c #A9B0B9",
"~.	c #A9AFB8",
"{.	c #A8AEB7",
"].	c #A6ACB5",
"^.	c #93979D",
"/.	c #EFF8F8",
"(.	c #B6B5B5",
"_.	c #898686",
":.	c #B4B3B3",
"<.	c #92969C",
"[.	c #9BA1A9",
"}.	c #A7A8A8",
"|.	c #F9FCFC",
"1.	c #878585",
"2.	c #EAEBEC",
"3.	c #9A9FA7",
"4.	c #F7FAFA",
"5.	c #F9FFFE",
"6.	c #F4F9F9",
"7.	c #E9EAEB",
"8.	c #ECEDEF",
"9.	c #8A8E95",
"0.	c #BDC4C4",
"a.	c #BEC1C1",
"b.	c #706D6D",
"c.	c #888686",
"d.	c #6E6A6A",
"e.	c #898787",
"f.	c #B2BEBE",
"g.	c #737578",
"h.	c #FAFAFB",
"i.	c #BFC5C5",
"j.	c #C0A4A4",
"k.	c #C28484",
"l.	c #C26565",
"m.	c #917575",
"n.	c #7E7A7A",
"o.	c #B6A1A1",
"p.	c #C28181",
"q.	c #EA7373",
"r.	c #A16D6D",
"s.	c #8D8080",
"t.	c #737577",
"u.	c #A9AFB9",
"v.	c #000000",
"w.	c #E9B9B9",
"x.	c #FE7D7D",
"y.	c #FF7D7D",
"z.	c #B68E8E",
"A.	c #FFE2E2",
"B.	c #8B4F4F",
"C.	c #F37D7D",
"D.	c #6E5B5B",
"E.	c #424242",
"F.	c #F57575",
"G.	c #FD7C7C",
"H.	c #FF8181",
"I.	c #A19999",
"J.	c #A1A0A0",
"K.	c #8B5D5D",
"L.	c #FE7C7C",
"M.	c #F66565",
"N.	c #785E5E",
"O.	c #ECEDEE",
"P.	c #676767",
"Q.	c #F76969",
"R.	c #FC7A7A",
"S.	c #FFA9A9",
"T.	c #EA7575",
"U.	c #9F5959",
"V.	c #696969",
"W.	c #F95050",
"X.	c #FC5555",
"Y.	c #C27171",
"Z.	c #877777",
"`.	c #8A7575",
" +	c #FF9393",
".+	c #FA6F6F",
"++	c #F56060",
"@+	c #7B6363",
"#+	c #A5ABB5",
"$+	c #A5ACB5",
"%+	c #C7CAD0",
"&+	c #585858",
"*+	c #FA4A4A",
"=+	c #FD3535",
"-+	c #FB7878",
";+	c #EA7676",
">+	c #A16666",
",+	c #C29D9D",
"'+	c #C2B4B4",
")+	c #C2A5A5",
"!+	c #C29F9F",
"~+	c #C26F6F",
"{+	c #F94B4B",
"]+	c #F53939",
"^+	c #736161",
"/+	c #A6ACB6",
"(+	c #A4ABB4",
"_+	c #E45454",
":+	c #FC2B2B",
"<+	c #FC4646",
"[+	c #FC7878",
"}+	c #FD7979",
"|+	c #F66363",
"1+	c #F92929",
"2+	c #E24747",
"3+	c #515151",
"4+	c #A3ABB3",
"5+	c #EBECEE",
"6+	c #EBEDEE",
"7+	c #6F7479",
"8+	c #C43933",
"9+	c #FC2B2A",
"0+	c #FE3636",
"a+	c #FD4444",
"b+	c #FD7A7A",
"c+	c #F96D6D",
"d+	c #FB4040",
"e+	c #F93A38",
"f+	c #D3322D",
"g+	c #A4ABB3",
"h+	c #9399A0",
"i+	c #E11908",
"j+	c #FD2A29",
"k+	c #FE3D3D",
"l+	c #FC5757",
"m+	c #FD7878",
"n+	c #FE7B7B",
"o+	c #FE7A7A",
"p+	c #F86C6C",
"q+	c #FD4A4A",
"r+	c #FC2C2A",
"s+	c #E91406",
"t+	c #560000",
"u+	c #9DA3AB",
"v+	c #A5ACB4",
"w+	c #9CA3AB",
"x+	c #DC1406",
"y+	c #FD2724",
"z+	c #FE4040",
"A+	c #FE6262",
"B+	c #FF7C7C",
"C+	c #FC7676",
"D+	c #FC5A5A",
"E+	c #FB3936",
"F+	c #EB0D04",
"G+	c #970000",
"H+	c #7C8087",
"I+	c #CC1205",
"J+	c #FD3431",
"K+	c #FF4545",
"L+	c #FE7474",
"M+	c #FE5D5D",
"N+	c #FD3C39",
"O+	c #E90902",
"P+	c #AC0000",
"Q+	c #C7CBD0",
"R+	c #A71607",
"S+	c #F55954",
"T+	c #FE7F7F",
"U+	c #FE7877",
"V+	c #F94643",
"W+	c #E00B03",
"X+	c #631E0B",
"Y+	c #CE8D86",
"Z+	c #CB7C78",
"`+	c #FC5955",
" @	c #EF5B56",
".@	c #9D1908",
"+@	c #C8CBD0",
"@@	c #ABB1BA",
"#@	c #29295B",
"$@	c #32326D",
"%@	c #B80000",
"&@	c #461305",
"*@	c #561908",
"=@	c #373776",
"-@	c #383878",
";@	c #C8CCD1",
">@	c #33336F",
",@	c #FF0000",
"'@	c #9898AD",
")@	c #919191",
"!@	c #ACB3BB",
"~@	c #AAB1BA",
"{@	c #888E95",
"]@	c #F7F7F8",
"^@	c #DFDFE5",
"/@	c #F6E1DE",
"(@	c #ADB3BB",
"_@	c #AAB0B8",
":@	c #BAA7AF",
"<@	c #A9AFB7",
"[@	c #32326C",
"}@	c #151536",
"|@	c #BDB2B6",
"1@	c #BCB1B6",
"2@	c #ADB4BC",
"3@	c #A8B0B7",
"4@	c #262656",
"5@	c #AEB4BC",
"6@	c #A8AEB6",
"7@	c #FFCDCD",
"8@	c #A6AEB6",
"9@	c #D2D2DA",
"0@	c #D4D4E4",
"a@	c #A7ADB5",
"b@	c #B0B0D0",
"c@	c #D48DA7",
"d@	c #70A0C0",
"e@	c #EC4A5A",
"f@	c #D18D95",
"g@	c #A80000",
"h@	c #BD0000",
"i@	c #7A0000",
"j@	c #A7ADB7",
". . . . . + + + + + + + + + @ # $ % & * = = - ; > , ' + + + + + + + + + + + + + + + ",
") ) ) ) ) ) ! ! ) ! ) ! ! ~ ! { ] ^ / ( _ : < [ } | 1 2 ! ! ! ! ! ! ! ! ! ! ! ! ! ! ",
"! ! ! ! ! ! ! ! ! ! 3 ! 4 5 6 7 8 9 0 a b c d e f g h i 5 j ! ! ! ! ! ! ! ! ! ! ! ! ",
"k k k k k k k k k k k l m n o p p q r s t u v w x y z A B C D E k k k k k k k k k k ",
"3 3 3 3 3 3 F F F F G H I J J K L M M m N O P P Q R R S T U V W @ 3 3 3 3 3 3 3 3 3 ",
"3 3 3 3 3 F # # X Y Z `  ...J +.@.......J J J J ..@.+.L L  .#.$.%.3 3 3 3 3 3 3 3 3 ",
"3 3 3 3 F # &.*.=.-.;.J J J >.@.....................,.'.J L J #.).=.!.3 3 3 !.!.3 3 ",
"!.3 !.k ~.{.X ].^./.L J J ..(._.......................:...J J J T <.k k k k k k k k ",
"k k k k ~.~.{.[.}.|.L J ....1.......................................2.k k k k k k k ",
"k k k k ~.~.k 3.4.R L ......1...........................1...J J 5.6.7.8.k k k k k k ",
"k k k k ~.{.{.9.0.a.'.,.,.b.c...........................,.d.e.M Q f.g.h.8.! ! ! ! ! ",
"k k k k ~.{.F 9.i.j.k.l.k.m.n.>.........................o.p.q.q.r.s.t.3 8.8.! ! ! ! ",
"k k k k k u.3 v.w.x.y.y.y.y.z._.......................A.B.y.y.y.x.C.D.F F ..3 ! ! ! ",
"k k k k k k ~.E.F.G.y.y.y.y.H.I.J.....................K.q.y.y.y.L.M.N.{.F O.8.! k ! ",
"k k k k k k k P.Q.R.y.y.y.y.y.S._.>.................@.T.y.y.y.y.R.M.U.E {.E ..~.k k ",
"k k k k k k k V.W.X.L.y.y.y.y.y.Y.Z.@.J.,.,.,.,._.`. +y.y.y.y.L..+++@+#+$+E ..%+k k ",
"3 3 3 3 3 !.3 &+*+=+-+x.y.y.y.y.y.y.;+>+,+'+)+!+~+q.y.y.y.y.x.-+{+]+^+/+(+$+8.8.k !.",
"3 3 3 3 3 3 3 v._+:+<+[+x.y.y.y.y.y.y.y.y.y.y.y.y.y.y.y.y.y.}+|+1+2+3+*.4+4+5+6+3 3 ",
"3 3 3 3 3 3 3 7+8+9+0+a+}+x.y.y.y.y.y.y.y.y.y.y.y.y.y.y.y.b+c+d+e+f+v.*.g+g+5+O.3 3 ",
"3 3 3 3 3 3 3 h+v.i+j+k+l+m+n+L.y.y.y.y.y.y.y.y.y.y.y.y.o+p+q+r+s+t+u+v+g+v+6+8.3 3 ",
"3 3 3 3 3 3 !.k w+v.x+y+z+A+n+o+n+B+y.y.y.y.y.y.y.y.B+L.C+D+E+F+G+[.X X E {...!.!.k ",
"k k k k k k k k k H+v.I+J+K+L+}+o+n+B+y.y.y.y.y.y.}+o+L.M+N+O+P+v.~.{.{.~.Q+..k k k ",
"! ! ! ! ! ! ! ! ! ! ! v.R+S+T+y.y.v.v.v.v.v.v.v.v.y.y.U+V+W+v.! ! ! ! ! ! ..Q+! ! ! ",
"! ! ! ! ) ! ) ) ) ) ) v.v.X+Y+Z+v.................v.`+ @.@v.v.) ) ) ) ) +@..) ) ) ) ",
"@@+ + + + + + + + v.v.#@$@%@&@v.v.................v.v.*@%@=@-@v.v.+ + ;@..+ + + + + ",
"+ . . ) ) ) ) ) ! v.-@>@>@,@,@........................,@,@-@'@)@)@8.8...;@. . . . . ",
"!@+ ~@! ! ! + + {@v.-@-@-@-@-@........................]@^@......../@/@(@(@(@(@(@(@(@",
"(@. _@~.3 _@) ) ) -@-@-@-@-@-@........................]@^@'@-@..... :@(@(@(@(@(@(@(@",
". ) _@<@<@3 3 ! ! -@-@-@-@[@}@........................-@-@-@-@|@1@+ . !@2@2@2@2@2@2@",
". . . ) ) _@3@3 _@-@-@-@-@4@v.........................-@-@-@-@. + . ! + 2@2@2@5@2@2@",
"+ . . (@!@. ~.<@6@-@-@-@-@v.v.,@,@7@............7@,@,@v.v.v.v.(@(@! + (@(@(@(@(@(@(@",
") ) ! ~@+ + 3 8@8@....9@-@v.v.0@,@,@,@,@,@,@,@,@,@,@0@v.v.v.v.(@. _@. (@(@(@(@(@(@(@",
"+ ) _@_@_@_@{.a@a@7@........v.b@b@c@,@,@,@,@,@c@b@b@b@d@d@-@-@_@_@<@) . . . . . . . ",
"@@+ ! ! 3 F # # F ,@,@,@,@e@v.b@b@b@b@b@b@b@b@b@b@b@b@d@d@-@-@*.# !.+ + + + + + + + ",
") ) ) _@<@<@{.<@k @@f@g@h@i@v.d@d@b@b@b@b@b@b@b@b@d@d@v.v.v.v.j@~.k @@@@@@@@@@@@@@@@",
"! ! ! ! 3 3 3 3 ! ! ! v.v.v.v.d@d@b@b@b@b@b@b@b@b@d@d@v.v.v.v.3 ! ! ! ! ! ! ! ! ! ! ",
"! ! ! ! ! ! ! ! ! ! ! v.v.-@-@-@-@v.v.v.v.v.v.v.v.-@-@-@-@v.v.! ! ! ! ! ! ! ! ! ! ! ",
"k k k ! ! ! k ! ! ! ! ! v.-@-@-@-@v.v.v.v.v.v.v.v.-@-@-@-@v.v.! ! ! ! ! ! ! ! ! ! ! ",
"k k k ! ! k k k ! ! k k k ! ! ! ! ! ! ! k k k ! ! v.v.v.v.! k k k ! ! k k k ! ! k k ",
"! ! ! ! ! ! ! ! ! ! ! ! ! ! ! ! ! ! ! ! ! ! ! ! ! v.v.v.v.! ! ! ! ! ! ! ! ! ! ! ! ! ",
"! ! ! ! ! ! ! ! ! ! ! ! ! ! ! ! ! ! ! ! ! ! ! ! ! ! ! ! ! ! ! ! ! ! ! ! ! ! ! ! ! ! ",
"+ + + + @@+ @@+ @@@@@@@@@@@@@@@@@@@@@@@@@@@@@@@@@@@@@@@@@@@@@@@@@@@@@@@@@@@@@@@@@@@@"};
