/* XPM */
static char * P_W1_xpm[] = {
"42 42 325 2",
"  	c None",
". 	c #ABB2BA",
"+ 	c #9EA4AC",
"@ 	c #92989F",
"# 	c #CDCECF",
"$ 	c #B0AFB2",
"% 	c #B0B3B6",
"& 	c #999CA6",
"* 	c #92969A",
"= 	c #8F8C90",
"- 	c #7B7B7E",
"; 	c #999EA4",
"> 	c #A7AEB6",
", 	c #A6ADB4",
"' 	c #ACB2BA",
") 	c #AAB1B9",
"! 	c #858B92",
"~ 	c #B0B0B0",
"{ 	c #FDF9F9",
"] 	c #F2ECEB",
"^ 	c #FAF8F7",
"/ 	c #FAFAFA",
"( 	c #FDFDFE",
"_ 	c #FAFAFD",
": 	c #FDFDFD",
"< 	c #FEFBFB",
"[ 	c #F9EDEB",
"} 	c #F7EBEA",
"| 	c #C2C2C2",
"1 	c #959AA1",
"2 	c #ABB1B9",
"3 	c #959BA2",
"4 	c #A9A9A9",
"5 	c #E8E8E8",
"6 	c #F6F6F6",
"7 	c #FEFCFC",
"8 	c #FCF7F6",
"9 	c #F5EBE9",
"0 	c #E7EBEB",
"a 	c #DFE6E6",
"b 	c #EDF1F1",
"c 	c #F3F4F4",
"d 	c #FDFAFA",
"e 	c #FFFEFD",
"f 	c #FEFDFD",
"g 	c #E7E7E7",
"h 	c #E6E6E6",
"i 	c #A0A7AE",
"j 	c #A9B0B8",
"k 	c #AAB0B9",
"l 	c #A7ADB6",
"m 	c #8C8E91",
"n 	c #9C9C9C",
"o 	c #E0E0E0",
"p 	c #F3F3F3",
"q 	c #F9FAFA",
"r 	c #F9FBFB",
"s 	c #B7BBBB",
"t 	c #848484",
"u 	c #848686",
"v 	c #848888",
"w 	c #818585",
"x 	c #999D9D",
"y 	c #DBE0E0",
"z 	c #DEE3E3",
"A 	c #FDFEFE",
"B 	c #DBDBDB",
"C 	c #C6C6C6",
"D 	c #A0A0A0",
"E 	c #808080",
"F 	c #9A9EA3",
"G 	c #A4A4A4",
"H 	c #F1F3F3",
"I 	c #FBFDFD",
"J 	c #FAFDFD",
"K 	c #FBFFFF",
"L 	c #C0C1C1",
"M 	c #E7E9E9",
"N 	c #E6E9E9",
"O 	c #FAFFFF",
"P 	c #8A8888",
"Q 	c #FDFFFF",
"R 	c #FCFFFF",
"S 	c #FEFFFF",
"T 	c #EAEEEE",
"U 	c #AAAAAA",
"V 	c #888888",
"W 	c #A8AFB7",
"X 	c #8E949A",
"Y 	c #A0ACB1",
"Z 	c #F7FDFD",
"` 	c #FBFEFE",
" .	c #E9E9E9",
"..	c #8B8888",
"+.	c #FFFFFF",
"@.	c #F3FBFB",
"#.	c #ABB8B8",
"$.	c #858B91",
"%.	c #A6ADB6",
"&.	c #A9B0B9",
"*.	c #9DA4AC",
"=.	c #F1F4F4",
"-.	c #C1C1C1",
";.	c #C2C1C1",
">.	c #EAE9E9",
",.	c #F1FCFB",
"'.	c #D6E0E0",
").	c #A6ADB5",
"!.	c #A5ADB5",
"~.	c #92969C",
"{.	c #B4B3B3",
"].	c #898686",
"^.	c #B6B5B5",
"/.	c #EFF8F8",
"(.	c #93979D",
"_.	c #A6ACB5",
":.	c #A8AEB7",
"<.	c #A9AFB8",
"[.	c #EAEBEC",
"}.	c #878585",
"|.	c #F9FCFC",
"1.	c #A7A8A8",
"2.	c #9BA1A9",
"3.	c #ECEDEF",
"4.	c #E9EAEB",
"5.	c #F4F9F9",
"6.	c #F9FFFE",
"7.	c #F7FAFA",
"8.	c #9A9FA7",
"9.	c #FAFAFB",
"0.	c #737578",
"a.	c #B2BEBE",
"b.	c #898787",
"c.	c #6E6A6A",
"d.	c #888686",
"e.	c #706D6D",
"f.	c #BEC1C1",
"g.	c #BDC4C4",
"h.	c #8A8E95",
"i.	c #737577",
"j.	c #8D8080",
"k.	c #A16D6D",
"l.	c #EA7373",
"m.	c #C28181",
"n.	c #B6A1A1",
"o.	c #7E7A7A",
"p.	c #917575",
"q.	c #C28484",
"r.	c #C26565",
"s.	c #C0A4A4",
"t.	c #BFC5C5",
"u.	c #6E5B5B",
"v.	c #F37D7D",
"w.	c #FE7D7D",
"x.	c #FF7D7D",
"y.	c #8B4F4F",
"z.	c #FFE2E2",
"A.	c #B68E8E",
"B.	c #E9B9B9",
"C.	c #000000",
"D.	c #A9AFB9",
"E.	c #ECEDEE",
"F.	c #785E5E",
"G.	c #F66565",
"H.	c #FE7C7C",
"I.	c #8B5D5D",
"J.	c #A1A0A0",
"K.	c #A19999",
"L.	c #FF8181",
"M.	c #FD7C7C",
"N.	c #F57575",
"O.	c #424242",
"P.	c #9F5959",
"Q.	c #FC7A7A",
"R.	c #EA7575",
"S.	c #FFA9A9",
"T.	c #F76969",
"U.	c #676767",
"V.	c #C7CAD0",
"W.	c #A5ACB5",
"X.	c #A5ABB5",
"Y.	c #7B6363",
"Z.	c #F56060",
"`.	c #FA6F6F",
" +	c #FF9393",
".+	c #8A7575",
"++	c #877777",
"@+	c #C27171",
"#+	c #FC5555",
"$+	c #F95050",
"%+	c #696969",
"&+	c #A4ABB4",
"*+	c #A6ACB6",
"=+	c #736161",
"-+	c #F53939",
";+	c #F94B4B",
">+	c #FB7878",
",+	c #C26F6F",
"'+	c #C29F9F",
")+	c #C2A5A5",
"!+	c #C2B4B4",
"~+	c #C29D9D",
"{+	c #A16666",
"]+	c #EA7676",
"^+	c #FD3535",
"/+	c #FA4A4A",
"(+	c #585858",
"_+	c #EBEDEE",
":+	c #EBECEE",
"<+	c #A3ABB3",
"[+	c #515151",
"}+	c #E24747",
"|+	c #F92929",
"1+	c #F66363",
"2+	c #FD7979",
"3+	c #FC7878",
"4+	c #FC4646",
"5+	c #FC2B2B",
"6+	c #E45454",
"7+	c #A4ABB3",
"8+	c #D3322D",
"9+	c #F93A38",
"0+	c #FB4040",
"a+	c #F96D6D",
"b+	c #FD7A7A",
"c+	c #FD4444",
"d+	c #FE3636",
"e+	c #FC2B2A",
"f+	c #C43933",
"g+	c #6F7479",
"h+	c #A5ACB4",
"i+	c #9DA3AB",
"j+	c #560000",
"k+	c #E91406",
"l+	c #FC2C2A",
"m+	c #FD4A4A",
"n+	c #F86C6C",
"o+	c #FE7A7A",
"p+	c #FE7B7B",
"q+	c #FD7878",
"r+	c #FC5757",
"s+	c #FE3D3D",
"t+	c #FD2A29",
"u+	c #E11908",
"v+	c #9399A0",
"w+	c #970000",
"x+	c #EB0D04",
"y+	c #FB3936",
"z+	c #FC5A5A",
"A+	c #FC7676",
"B+	c #FF7C7C",
"C+	c #FE6262",
"D+	c #FE4040",
"E+	c #FD2724",
"F+	c #DC1406",
"G+	c #9CA3AB",
"H+	c #C7CBD0",
"I+	c #AC0000",
"J+	c #E90902",
"K+	c #FD3C39",
"L+	c #FE5D5D",
"M+	c #FE7474",
"N+	c #FF4545",
"O+	c #FD3431",
"P+	c #CC1205",
"Q+	c #7C8087",
"R+	c #E00B03",
"S+	c #F94643",
"T+	c #FE7877",
"U+	c #FE7F7F",
"V+	c #F55954",
"W+	c #A71607",
"X+	c #C8CBD0",
"Y+	c #9D1908",
"Z+	c #EF5B56",
"`+	c #FC5955",
" @	c #CB7C78",
".@	c #CE8D86",
"+@	c #631E0B",
"@@	c #C8CCD1",
"#@	c #383878",
"$@	c #373776",
"%@	c #B80000",
"&@	c #561908",
"*@	c #461305",
"=@	c #32326D",
"-@	c #29295B",
";@	c #ABB1BA",
">@	c #919191",
",@	c #9898AD",
"'@	c #FF0000",
")@	c #33336F",
"!@	c #ADB3BB",
"~@	c #F6E1DE",
"{@	c #DFDFE5",
"]@	c #F7F7F8",
"^@	c #888E95",
"/@	c #AAB1BA",
"(@	c #ACB3BB",
"_@	c #BAA7AF",
":@	c #AAB0B8",
"<@	c #ADB4BC",
"[@	c #BCB1B6",
"}@	c #BDB2B6",
"|@	c #151536",
"1@	c #32326C",
"2@	c #A9AFB7",
"3@	c #AEB4BC",
"4@	c #262656",
"5@	c #A8B0B7",
"6@	c #FFCDCD",
"7@	c #A8AEB6",
"8@	c #D4D4E4",
"9@	c #D2D2DA",
"0@	c #A6AEB6",
"a@	c #70A0C0",
"b@	c #B0B0D0",
"c@	c #D48DA7",
"d@	c #A7ADB5",
"e@	c #EC4A5A",
"f@	c #A7ADB7",
"g@	c #7A0000",
"h@	c #BD0000",
"i@	c #A80000",
"j@	c #D18D95",
". . . . . . . . . . . . . . . + @ # $ % & & * = - ; > , . . . . . . . . . ' ' ' ' ' ",
") ) ) ) ) ) ) ) ) ) ) ) ) ) ! ~ { ] ^ / ( _ : < [ } | ) 1 ) ) 2 ) 2 ) ) 2 2 2 2 2 2 ",
") ) ) ) ) ) ) ) ) ) ) ) 3 4 5 6 7 8 9 0 a b c d e f g h 4 i ) j ) ) ) ) ) ) ) ) ) ) ",
"k k k k k k k k k k l m n o p q r s t u v w x y z A A B C D E k k k k k k k k k k k ",
"j j j j j j j j j , F G H I J K K L M M N O D P P Q R S S T U V W W W W j j j j j j ",
"j j j j j j j j j X Y Z ` Q Q  ...+.S S S S +.+.+... .S +.` @.#.$.%.> > W j j j j j ",
"j j &.&.j j j &.*.=.Z S Q S -.;.+.+.+.+.+.+.+.+.+.+...>.S S S ,.'.*.).!.> W j j j j ",
"k k k k k k k k ~.I S S S +.{.+.+.+.+.+.+.+.+.+.+.+.].^.+.S S Q /.(._.%.:.<.k &.j &.",
"k k k k k k k [.+.+.+.+.+.+.+.+.+.+.+.+.+.+.+.+.+.+.+.}.+.+.S Q |.1.2.:.<.<.k k k k ",
"k k k k k k 3.4.5.6.S S +.}.+.+.+.+.+.+.+.+.+.+.+.+.+.}.+.+.+.Q K 7.8.k <.<.k k k k ",
") ) ) ) ) 3.9.0.a.L P b.c.;.+.+.+.+.+.+.+.+.+.+.+.+.+.d.e.;.;.-.f.g.h.:.:.<.k k k k ",
") ) ) ) 3.3.j i.j.k.l.l.m.n.+.+.+.+.+.+.+.+.+.+.+.+.>.o.p.q.r.q.s.t.h.W :.<.k k k k ",
") ) ) j +.W W u.v.w.x.x.x.y.z.+.+.+.+.+.+.+.+.+.+.+.].A.x.x.x.x.w.B.C.j D.k k k k k ",
") k ) 3.E.W :.F.G.H.x.x.x.l.I.+.+.+.+.+.+.+.+.+.+.J.K.L.x.x.x.x.M.N.O.<.k k k k k k ",
"k k <.+.l :.l P.G.Q.x.x.x.x.R...+.+.+.+.+.+.+.+.>.].S.x.x.x.x.x.Q.T.U.k k k k k k k ",
"k k V.+.l W.X.Y.Z.`.H.x.x.x.x. +.+].;.;.;.;.J...++@+x.x.x.x.x.H.#+$+%+k k k k k k k ",
"&.k 3.3.W.&+*+=+-+;+>+w.x.x.x.x.l.,+'+)+!+~+{+]+x.x.x.x.x.x.w.>+^+/+(+j &.j j j j j ",
"j j _+:+<+<+).[+}+|+1+2+x.x.x.x.x.x.x.x.x.x.x.x.x.x.x.x.x.w.3+4+5+6+C.j j j j j j j ",
"j j E.:+7+7+).C.8+9+0+a+b+x.x.x.x.x.x.x.x.x.x.x.x.x.x.x.w.2+c+d+e+f+g+j j j j j j j ",
"j j 3._+h+7+h+i+j+k+l+m+n+o+x.x.x.x.x.x.x.x.x.x.x.x.H.p+q+r+s+t+u+C.v+j j j j j j j ",
"k &.&.+.:.l %.%.2.w+x+y+z+A+H.B+x.x.x.x.x.x.x.x.B+p+o+p+C+D+E+F+C.G+k &.j j j j j j ",
"k k k +.H+<.:.:.<.C.I+J+K+L+H.o+2+x.x.x.x.x.x.B+p+o+2+M+N+O+P+C.Q+k k k k k k k k k ",
") ) ) H++.) ) ) ) ) ) C.R+S+T+x.x.C.C.C.C.C.C.C.C.x.x.U+V+W+C.) ) ) ) ) ) ) ) ) ) ) ",
"2 2 2 2 +.X+2 2 2 2 2 C.C.Y+Z+`+C.+.+.+.+.+.+.+.+.C. @.@+@C.C.2 2 2 2 2 ) 2 ) ) ) ) ",
". . . . . +.@@. . C.C.#@$@%@&@C.C.+.+.+.+.+.+.+.+.C.C.*@%@=@-@C.C.. . . . . . . . ;@",
"' ' ' ' ' @@+.3.3.>@>@,@#@'@'@+.+.+.+.+.+.+.+.+.+.+.+.'@'@)@)@#@C.) 2 2 2 2 2 ' ' . ",
"!@!@!@!@!@!@!@~@~@+.+.+.+.{@]@+.+.+.+.+.+.+.+.+.+.+.+.#@#@#@#@#@C.^@. . ) ) ) /@. (@",
"!@!@!@!@!@!@!@_@' +.+.#@,@{@]@+.+.+.+.+.+.+.+.+.+.+.+.#@#@#@#@#@#@2 2 2 :@j <.:@' !@",
"<@<@<@<@<@<@(@' . [@}@#@#@#@#@+.+.+.+.+.+.+.+.+.+.+.+.|@1@#@#@#@#@) ) j j 2@2@:@2 ' ",
"<@<@3@<@<@<@. ) ' . ' #@#@#@#@+.+.+.+.+.+.+.+.+.+.+.+.C.4@#@#@#@#@:@j 5@:@2 2 ' ' ' ",
"!@!@!@!@!@!@!@. ) !@!@C.C.C.C.'@'@6@+.+.+.+.+.+.6@'@'@C.C.#@#@#@#@7@2@<.' (@!@' ' . ",
"!@!@!@!@!@!@!@' :@' !@C.C.C.C.8@'@'@'@'@'@'@'@'@'@'@8@C.C.#@9@+.+.0@0@j . . /@) 2 2 ",
"' ' ' ' ' ' ' 2 2@:@:@#@#@a@a@b@b@b@c@'@'@'@'@'@c@b@b@C.+.+.+.+.6@d@d@:.:@:@:@:@2 . ",
". . . . . . . . &.> ).#@#@a@a@b@b@b@b@b@b@b@b@b@b@b@b@C.e@'@'@'@'@W > > W j ) ) . ;@",
";@;@;@;@;@;@;@;@k <.f@C.C.C.C.a@a@b@b@b@b@b@b@b@b@a@a@C.g@h@i@j@;@k 2@:.2@2@:@2 2 2 ",
") ) ) ) ) ) ) ) ) ) j C.C.C.C.a@a@b@b@b@b@b@b@b@b@a@a@C.C.C.C.) ) ) j j j j ) ) ) ) ",
") ) ) ) ) ) ) ) ) ) ) C.C.#@#@#@#@C.C.C.C.C.C.C.C.#@#@#@#@C.C.) ) ) ) ) ) ) ) ) ) ) ",
") ) ) ) ) ) ) ) ) ) ) C.C.#@#@#@#@C.C.C.C.C.C.C.C.#@#@#@#@C.) ) ) ) ) k ) ) ) k k k ",
"k k ) ) k k k ) ) k k k ) C.C.C.C.) ) k k k ) ) ) ) ) ) ) k k k ) ) k k k ) ) k k k ",
") ) ) ) ) ) ) ) ) ) ) ) ) C.C.C.C.) ) ) ) ) ) ) ) ) ) ) ) ) ) ) ) ) ) ) ) ) ) ) ) ) ",
") ) ) ) ) ) ) ) ) ) ) ) ) ) ) ) ) ) ) ) ) ) ) ) ) ) ) ) ) ) ) ) ) ) ) ) ) ) ) ) ) ) ",
";@;@;@;@;@;@;@;@;@;@;@;@;@;@;@;@;@;@;@;@;@;@;@;@;@;@;@;@;@;@;@;@;@;@. ;@. ;@. . . . "};
