/* XPM */
static char * treez_xpm[] = {
"42 42 58 1",
" 	c None",
".	c #ABB2BA",
"+	c #ACB2BA",
"@	c #AAB1B9",
"#	c #ABB1B9",
"$	c #A9B0B8",
"%	c #AAB0B9",
"&	c #A9AFB8",
"*	c #A8AFB8",
"=	c #A8AEB7",
"-	c #A7ADB7",
";	c #A8AFB7",
">	c #A7AEB6",
",	c #A6ADB5",
"'	c #A5ADB5",
")	c #282828",
"!	c #A6ADB6",
"~	c #A9B0B9",
"{	c #686868",
"]	c #989898",
"^	c #B0B0B0",
"/	c #7E8287",
"(	c #07284F",
"_	c #164680",
":	c #505050",
"<	c #9A9A9B",
"[	c #8B8F94",
"}	c #6E6F70",
"|	c #6F7071",
"1	c #8B8E93",
"2	c #A3A8B1",
"3	c #78797C",
"4	c #404244",
"5	c #999EA4",
"6	c #A8AEB6",
"7	c #878B90",
"8	c #868B90",
"9	c #93989E",
"0	c #5B5D5E",
"a	c #A2A8B0",
"b	c #6A6D70",
"c	c #74777B",
"d	c #9EA4AC",
"e	c #6B6F74",
"f	c #9CA2AA",
"g	c #A9AFB7",
"h	c #979EA5",
"i	c #515457",
"j	c #74787D",
"k	c #AAB0B8",
"l	c #A4ABB3",
"m	c #74797E",
"n	c #898E95",
"o	c #ABB1BA",
"p	c #ABB0B9",
"q	c #A6ACB5",
"r	c #868B92",
"s	c #9BA1A9",
".....................................+++++",
"@@@@@@@@@@@@@@@@@@@@@@@@@@@@#@@#@#@@######",
"@@@@@@@@@@@@@@@$$$$$$@@@@@@@@@@@@@@@@@@@@@",
"%%%%%%%%%%%%%%&*==-==&%%%%%%%%%%%%%%%%%%%%",
"$$$$$$$$$$$$$;>>>>,,'>;$$$$$$$;;;;;;$$$$$$",
"$$$$$$$$$))))))))))))))))))))))))!>>;$$$$$",
"$$~~$$$~~)))))))))))))))))))))))),,'>;$$$$",
"%%%%%%%))){{]]]]^^^^^^^^^^]]]]{))))!=&%~$~",
"%%%%%%%))){{]]]]^^^^^^^^^^]]]]{))))=&&%%%%",
"%%%%%)){{]]]]]^^^^^^^^^^^^^^]]]]]{{))&%%%%",
"@@@)){{]]]{{{{{{]^^^^^^^]]{{{{{]]]]{{)%%%%",
"@@@)){{]]]{{{{{{]^^^^^^^]]{{{{{]]]]{{)%%%%",
"@@){{]]]]{{{)))){]]^^^^]{{)))){{{]]]]{))%%",
"@%){{]]]]{{{)))){]]^^^^]{{)))){{{]]]]{))%%",
"//)]]]]]]{((____){{^^^^{))____({{]]]]]))//",
"//)]]]]]]{((____){{^^^^{))____({{]]]]]))//",
")){]]]]]]{((((___((]]]](____((({{]]]]]{{))",
")){{{]]]]]((((((_((]]]](__(((((]]]]]]{{{))",
")){{{]]]]]((((((_((]]]](__(((((]]]]]]{{{))",
")):{{{{]]]]](((((((]]]](((((((]]]]]{{{::))",
")):{{{{]]]]](((((((]]]](((((((]]]]]{{{::))",
")))::{{{{]]]]](((((]]]](((((]]]]]{{{{:))))",
")))::{{{{]]]]](((((]]]](((((]]]]]{{{{:))))",
"))]))::::{{{]]]]]{{^^^^{]]]]]]{{{::::)]]))",
"))]{{)))))::{{{{]]]^^^^]]]{{{{:)))))){]]))",
"))]{{)))))::{{{{]]]^^^^]]]{{{{:)))))){]]))",
")){]]{{:::))))::{]]]]]]]{{::)))::::{{]{{))",
")){]]{{:::))))::{]]]]]]]{{::)))::::{{]{{))",
")):{{]]]]]::::)):{{]]]]{::)):::]]]]]]{::))",
")):{{]]]]]::::)):{{]]]]{::)):::]]]]]]{::))",
"::)::{{{{{{{{{::)::{{{{:))::{{{{{{{{{:))::",
"]])::)){{{{{{{:::))::::)::::{{{{{{{)):))]]",
"<])::)){{{{{{{:::))::::)::::{{{{{{{)):))]]",
"[})::]]:::::::]]{))))))){{]]:::::::]]:))|1",
"23)::]]:::::::]]{))))))){{]]:::::::]]:)456",
"$7:)){{]]]]]]]{{{::]]]]:{{{{]]]]]]]{{):8$@",
"@9:)){{]]]]]]]{{{::]]]]:{{{{]]]]]]]{{)0a@@",
"@,b))::{{{{{{{{{{::{{{{:{{{{{{{{{{{::)c&%%",
"%%de)))::{{{{{{{:::{{{{:::{{{{{{{::)))f%%%",
"@@ghi))::{{{{{{{:::{{{{:::{{{{{{{::))j>@@@",
"@@klm)))):::::::)))::::))):::::::))))n;@@@",
"oopqr)))):::::::)))::::))):::::::))))s>@.."};
